M48
; DRILL file {KiCad 7.0.1} date Wed Oct 25 21:17:46 2023
; FORMAT={-:-/ absolute / metric / decimal}
; #@! TF.CreationDate,2023-10-25T21:17:46+02:00
; #@! TF.GenerationSoftware,Kicad,Pcbnew,7.0.1
; #@! TF.FileFunction,Plated,1,2,PTH
FMAT,2
METRIC
; #@! TA.AperFunction,Plated,PTH,ViaDrill
T1C0.400
; #@! TA.AperFunction,Plated,PTH,ComponentDrill
T2C1.000
%
G90
G05
T1
X102.362Y-100.33
X102.362Y-105.918
X103.378Y-111.252
X106.172Y-107.696
X106.172Y-114.046
X107.696Y-104.902
X107.696Y-114.3
X109.22Y-104.902
X109.22Y-114.3
X109.347Y-99.695
X109.855Y-115.824
X109.982Y-118.364
X110.617Y-100.076
X111.76Y-104.775
X112.268Y-105.918
X115.824Y-114.3
X116.877Y-104.902
X119.634Y-108.712
X119.888Y-109.982
X120.65Y-117.094
X120.65Y-118.872
T2
X100.0Y-100.0
X100.0Y-102.54
X100.0Y-105.08
X100.0Y-107.62
X100.0Y-110.16
X100.0Y-112.7
X100.0Y-115.24
X100.0Y-117.78
X115.57Y-98.806
X115.57Y-101.346
X118.11Y-98.806
X118.11Y-101.346
X122.86Y-100.0
X122.86Y-102.54
X122.86Y-105.08
X122.86Y-107.62
X122.86Y-110.16
X122.86Y-112.7
X122.86Y-115.24
X122.86Y-117.78
T0
M30
