%TF.GenerationSoftware,KiCad,Pcbnew,7.0.1*%
%TF.CreationDate,2023-10-25T21:17:47+02:00*%
%TF.ProjectId,canfd_breakout,63616e66-645f-4627-9265-616b6f75742e,rev?*%
%TF.SameCoordinates,Original*%
%TF.FileFunction,Drillmap*%
%TF.FilePolarity,Positive*%
%FSLAX45Y45*%
G04 Gerber Fmt 4.5, Leading zero omitted, Abs format (unit mm)*
G04 Created by KiCad (PCBNEW 7.0.1) date 2023-10-25 21:17:47*
%MOMM*%
%LPD*%
G01*
G04 APERTURE LIST*
%ADD10C,0.001000*%
%ADD11C,0.200000*%
G04 APERTURE END LIST*
D10*
X9855200Y-9575800D02*
X12433300Y-9575800D01*
X12433300Y-11950700D01*
X9855200Y-11950700D01*
X9855200Y-9575800D01*
D11*
X10102769Y-12263274D02*
X10102769Y-12063274D01*
X10102769Y-12063274D02*
X10150388Y-12063274D01*
X10150388Y-12063274D02*
X10178960Y-12072798D01*
X10178960Y-12072798D02*
X10198007Y-12091845D01*
X10198007Y-12091845D02*
X10207531Y-12110893D01*
X10207531Y-12110893D02*
X10217055Y-12148988D01*
X10217055Y-12148988D02*
X10217055Y-12177559D01*
X10217055Y-12177559D02*
X10207531Y-12215655D01*
X10207531Y-12215655D02*
X10198007Y-12234702D01*
X10198007Y-12234702D02*
X10178960Y-12253750D01*
X10178960Y-12253750D02*
X10150388Y-12263274D01*
X10150388Y-12263274D02*
X10102769Y-12263274D01*
X10302769Y-12263274D02*
X10302769Y-12129940D01*
X10302769Y-12168036D02*
X10312293Y-12148988D01*
X10312293Y-12148988D02*
X10321817Y-12139464D01*
X10321817Y-12139464D02*
X10340864Y-12129940D01*
X10340864Y-12129940D02*
X10359912Y-12129940D01*
X10426579Y-12263274D02*
X10426579Y-12129940D01*
X10426579Y-12063274D02*
X10417055Y-12072798D01*
X10417055Y-12072798D02*
X10426579Y-12082321D01*
X10426579Y-12082321D02*
X10436102Y-12072798D01*
X10436102Y-12072798D02*
X10426579Y-12063274D01*
X10426579Y-12063274D02*
X10426579Y-12082321D01*
X10550388Y-12263274D02*
X10531340Y-12253750D01*
X10531340Y-12253750D02*
X10521817Y-12234702D01*
X10521817Y-12234702D02*
X10521817Y-12063274D01*
X10655150Y-12263274D02*
X10636102Y-12253750D01*
X10636102Y-12253750D02*
X10626579Y-12234702D01*
X10626579Y-12234702D02*
X10626579Y-12063274D01*
X10883721Y-12263274D02*
X10883721Y-12063274D01*
X10883721Y-12063274D02*
X10950388Y-12206131D01*
X10950388Y-12206131D02*
X11017055Y-12063274D01*
X11017055Y-12063274D02*
X11017055Y-12263274D01*
X11198007Y-12263274D02*
X11198007Y-12158512D01*
X11198007Y-12158512D02*
X11188483Y-12139464D01*
X11188483Y-12139464D02*
X11169436Y-12129940D01*
X11169436Y-12129940D02*
X11131340Y-12129940D01*
X11131340Y-12129940D02*
X11112293Y-12139464D01*
X11198007Y-12253750D02*
X11178960Y-12263274D01*
X11178960Y-12263274D02*
X11131340Y-12263274D01*
X11131340Y-12263274D02*
X11112293Y-12253750D01*
X11112293Y-12253750D02*
X11102769Y-12234702D01*
X11102769Y-12234702D02*
X11102769Y-12215655D01*
X11102769Y-12215655D02*
X11112293Y-12196607D01*
X11112293Y-12196607D02*
X11131340Y-12187083D01*
X11131340Y-12187083D02*
X11178960Y-12187083D01*
X11178960Y-12187083D02*
X11198007Y-12177559D01*
X11293245Y-12129940D02*
X11293245Y-12329940D01*
X11293245Y-12139464D02*
X11312293Y-12129940D01*
X11312293Y-12129940D02*
X11350388Y-12129940D01*
X11350388Y-12129940D02*
X11369436Y-12139464D01*
X11369436Y-12139464D02*
X11378959Y-12148988D01*
X11378959Y-12148988D02*
X11388483Y-12168036D01*
X11388483Y-12168036D02*
X11388483Y-12225178D01*
X11388483Y-12225178D02*
X11378959Y-12244226D01*
X11378959Y-12244226D02*
X11369436Y-12253750D01*
X11369436Y-12253750D02*
X11350388Y-12263274D01*
X11350388Y-12263274D02*
X11312293Y-12263274D01*
X11312293Y-12263274D02*
X11293245Y-12253750D01*
X11474198Y-12244226D02*
X11483721Y-12253750D01*
X11483721Y-12253750D02*
X11474198Y-12263274D01*
X11474198Y-12263274D02*
X11464674Y-12253750D01*
X11464674Y-12253750D02*
X11474198Y-12244226D01*
X11474198Y-12244226D02*
X11474198Y-12263274D01*
X11474198Y-12139464D02*
X11483721Y-12148988D01*
X11483721Y-12148988D02*
X11474198Y-12158512D01*
X11474198Y-12158512D02*
X11464674Y-12148988D01*
X11464674Y-12148988D02*
X11474198Y-12139464D01*
X11474198Y-12139464D02*
X11474198Y-12158512D01*
M02*
