%TF.GenerationSoftware,KiCad,Pcbnew,7.0.1*%
%TF.CreationDate,2023-10-25T21:17:47+02:00*%
%TF.ProjectId,canfd_breakout,63616e66-645f-4627-9265-616b6f75742e,rev?*%
%TF.SameCoordinates,Original*%
%TF.FileFunction,Drillmap*%
%TF.FilePolarity,Positive*%
%FSLAX45Y45*%
G04 Gerber Fmt 4.5, Leading zero omitted, Abs format (unit mm)*
G04 Created by KiCad (PCBNEW 7.0.1) date 2023-10-25 21:17:47*
%MOMM*%
%LPD*%
G01*
G04 APERTURE LIST*
%ADD10C,0.001000*%
%ADD11C,0.200000*%
%ADD12C,0.040000*%
%ADD13C,0.100000*%
G04 APERTURE END LIST*
D10*
X9855200Y-9575800D02*
X12433300Y-9575800D01*
X12433300Y-11950700D01*
X9855200Y-11950700D01*
X9855200Y-9575800D01*
D11*
D12*
X10216200Y-10013000D02*
X10256200Y-10053000D01*
X10256200Y-10013000D02*
X10216200Y-10053000D01*
X10216200Y-10571800D02*
X10256200Y-10611800D01*
X10256200Y-10571800D02*
X10216200Y-10611800D01*
X10317800Y-11105200D02*
X10357800Y-11145200D01*
X10357800Y-11105200D02*
X10317800Y-11145200D01*
X10597200Y-10749600D02*
X10637200Y-10789600D01*
X10637200Y-10749600D02*
X10597200Y-10789600D01*
X10597200Y-11384600D02*
X10637200Y-11424600D01*
X10637200Y-11384600D02*
X10597200Y-11424600D01*
X10749600Y-10470200D02*
X10789600Y-10510200D01*
X10789600Y-10470200D02*
X10749600Y-10510200D01*
X10749600Y-11410000D02*
X10789600Y-11450000D01*
X10789600Y-11410000D02*
X10749600Y-11450000D01*
X10902000Y-10470200D02*
X10942000Y-10510200D01*
X10942000Y-10470200D02*
X10902000Y-10510200D01*
X10902000Y-11410000D02*
X10942000Y-11450000D01*
X10942000Y-11410000D02*
X10902000Y-11450000D01*
X10914700Y-9949500D02*
X10954700Y-9989500D01*
X10954700Y-9949500D02*
X10914700Y-9989500D01*
X10965500Y-11562400D02*
X11005500Y-11602400D01*
X11005500Y-11562400D02*
X10965500Y-11602400D01*
X10978200Y-11816400D02*
X11018200Y-11856400D01*
X11018200Y-11816400D02*
X10978200Y-11856400D01*
X11041700Y-9987600D02*
X11081700Y-10027600D01*
X11081700Y-9987600D02*
X11041700Y-10027600D01*
X11156000Y-10457500D02*
X11196000Y-10497500D01*
X11196000Y-10457500D02*
X11156000Y-10497500D01*
X11206800Y-10571800D02*
X11246800Y-10611800D01*
X11246800Y-10571800D02*
X11206800Y-10611800D01*
X11562400Y-11410000D02*
X11602400Y-11450000D01*
X11602400Y-11410000D02*
X11562400Y-11450000D01*
X11667750Y-10470200D02*
X11707750Y-10510200D01*
X11707750Y-10470200D02*
X11667750Y-10510200D01*
X11943400Y-10851200D02*
X11983400Y-10891200D01*
X11983400Y-10851200D02*
X11943400Y-10891200D01*
X11968800Y-10978200D02*
X12008800Y-11018200D01*
X12008800Y-10978200D02*
X11968800Y-11018200D01*
X12045000Y-11689400D02*
X12085000Y-11729400D01*
X12085000Y-11689400D02*
X12045000Y-11729400D01*
X12045000Y-11867200D02*
X12085000Y-11907200D01*
X12085000Y-11867200D02*
X12045000Y-11907200D01*
D13*
X10050000Y-10000000D02*
G75*
G03*
X10050000Y-10000000I-50000J0D01*
G01*
X10050000Y-10254000D02*
G75*
G03*
X10050000Y-10254000I-50000J0D01*
G01*
X10050000Y-10508000D02*
G75*
G03*
X10050000Y-10508000I-50000J0D01*
G01*
X10050000Y-10762000D02*
G75*
G03*
X10050000Y-10762000I-50000J0D01*
G01*
X10050000Y-11016000D02*
G75*
G03*
X10050000Y-11016000I-50000J0D01*
G01*
X10050000Y-11270000D02*
G75*
G03*
X10050000Y-11270000I-50000J0D01*
G01*
X10050000Y-11524000D02*
G75*
G03*
X10050000Y-11524000I-50000J0D01*
G01*
X10050000Y-11778000D02*
G75*
G03*
X10050000Y-11778000I-50000J0D01*
G01*
X11607000Y-9880600D02*
G75*
G03*
X11607000Y-9880600I-50000J0D01*
G01*
X11607000Y-10134600D02*
G75*
G03*
X11607000Y-10134600I-50000J0D01*
G01*
X11861000Y-9880600D02*
G75*
G03*
X11861000Y-9880600I-50000J0D01*
G01*
X11861000Y-10134600D02*
G75*
G03*
X11861000Y-10134600I-50000J0D01*
G01*
X12336000Y-10000000D02*
G75*
G03*
X12336000Y-10000000I-50000J0D01*
G01*
X12336000Y-10254000D02*
G75*
G03*
X12336000Y-10254000I-50000J0D01*
G01*
X12336000Y-10508000D02*
G75*
G03*
X12336000Y-10508000I-50000J0D01*
G01*
X12336000Y-10762000D02*
G75*
G03*
X12336000Y-10762000I-50000J0D01*
G01*
X12336000Y-11016000D02*
G75*
G03*
X12336000Y-11016000I-50000J0D01*
G01*
X12336000Y-11270000D02*
G75*
G03*
X12336000Y-11270000I-50000J0D01*
G01*
X12336000Y-11524000D02*
G75*
G03*
X12336000Y-11524000I-50000J0D01*
G01*
X12336000Y-11778000D02*
G75*
G03*
X12336000Y-11778000I-50000J0D01*
G01*
D11*
X10102769Y-12263274D02*
X10102769Y-12063274D01*
X10102769Y-12063274D02*
X10150388Y-12063274D01*
X10150388Y-12063274D02*
X10178960Y-12072798D01*
X10178960Y-12072798D02*
X10198007Y-12091845D01*
X10198007Y-12091845D02*
X10207531Y-12110893D01*
X10207531Y-12110893D02*
X10217055Y-12148988D01*
X10217055Y-12148988D02*
X10217055Y-12177559D01*
X10217055Y-12177559D02*
X10207531Y-12215655D01*
X10207531Y-12215655D02*
X10198007Y-12234702D01*
X10198007Y-12234702D02*
X10178960Y-12253750D01*
X10178960Y-12253750D02*
X10150388Y-12263274D01*
X10150388Y-12263274D02*
X10102769Y-12263274D01*
X10302769Y-12263274D02*
X10302769Y-12129940D01*
X10302769Y-12168036D02*
X10312293Y-12148988D01*
X10312293Y-12148988D02*
X10321817Y-12139464D01*
X10321817Y-12139464D02*
X10340864Y-12129940D01*
X10340864Y-12129940D02*
X10359912Y-12129940D01*
X10426579Y-12263274D02*
X10426579Y-12129940D01*
X10426579Y-12063274D02*
X10417055Y-12072798D01*
X10417055Y-12072798D02*
X10426579Y-12082321D01*
X10426579Y-12082321D02*
X10436102Y-12072798D01*
X10436102Y-12072798D02*
X10426579Y-12063274D01*
X10426579Y-12063274D02*
X10426579Y-12082321D01*
X10550388Y-12263274D02*
X10531340Y-12253750D01*
X10531340Y-12253750D02*
X10521817Y-12234702D01*
X10521817Y-12234702D02*
X10521817Y-12063274D01*
X10655150Y-12263274D02*
X10636102Y-12253750D01*
X10636102Y-12253750D02*
X10626579Y-12234702D01*
X10626579Y-12234702D02*
X10626579Y-12063274D01*
X10883721Y-12263274D02*
X10883721Y-12063274D01*
X10883721Y-12063274D02*
X10950388Y-12206131D01*
X10950388Y-12206131D02*
X11017055Y-12063274D01*
X11017055Y-12063274D02*
X11017055Y-12263274D01*
X11198007Y-12263274D02*
X11198007Y-12158512D01*
X11198007Y-12158512D02*
X11188483Y-12139464D01*
X11188483Y-12139464D02*
X11169436Y-12129940D01*
X11169436Y-12129940D02*
X11131340Y-12129940D01*
X11131340Y-12129940D02*
X11112293Y-12139464D01*
X11198007Y-12253750D02*
X11178960Y-12263274D01*
X11178960Y-12263274D02*
X11131340Y-12263274D01*
X11131340Y-12263274D02*
X11112293Y-12253750D01*
X11112293Y-12253750D02*
X11102769Y-12234702D01*
X11102769Y-12234702D02*
X11102769Y-12215655D01*
X11102769Y-12215655D02*
X11112293Y-12196607D01*
X11112293Y-12196607D02*
X11131340Y-12187083D01*
X11131340Y-12187083D02*
X11178960Y-12187083D01*
X11178960Y-12187083D02*
X11198007Y-12177559D01*
X11293245Y-12129940D02*
X11293245Y-12329940D01*
X11293245Y-12139464D02*
X11312293Y-12129940D01*
X11312293Y-12129940D02*
X11350388Y-12129940D01*
X11350388Y-12129940D02*
X11369436Y-12139464D01*
X11369436Y-12139464D02*
X11378959Y-12148988D01*
X11378959Y-12148988D02*
X11388483Y-12168036D01*
X11388483Y-12168036D02*
X11388483Y-12225178D01*
X11388483Y-12225178D02*
X11378959Y-12244226D01*
X11378959Y-12244226D02*
X11369436Y-12253750D01*
X11369436Y-12253750D02*
X11350388Y-12263274D01*
X11350388Y-12263274D02*
X11312293Y-12263274D01*
X11312293Y-12263274D02*
X11293245Y-12253750D01*
X11474198Y-12244226D02*
X11483721Y-12253750D01*
X11483721Y-12253750D02*
X11474198Y-12263274D01*
X11474198Y-12263274D02*
X11464674Y-12253750D01*
X11464674Y-12253750D02*
X11474198Y-12244226D01*
X11474198Y-12244226D02*
X11474198Y-12263274D01*
X11474198Y-12139464D02*
X11483721Y-12148988D01*
X11483721Y-12148988D02*
X11474198Y-12158512D01*
X11474198Y-12158512D02*
X11464674Y-12148988D01*
X11464674Y-12148988D02*
X11474198Y-12139464D01*
X11474198Y-12139464D02*
X11474198Y-12158512D01*
D12*
X9815150Y-12570750D02*
X9855150Y-12610750D01*
X9855150Y-12570750D02*
X9815150Y-12610750D01*
D11*
X10140864Y-12483274D02*
X10159912Y-12483274D01*
X10159912Y-12483274D02*
X10178960Y-12492798D01*
X10178960Y-12492798D02*
X10188483Y-12502321D01*
X10188483Y-12502321D02*
X10198007Y-12521369D01*
X10198007Y-12521369D02*
X10207531Y-12559464D01*
X10207531Y-12559464D02*
X10207531Y-12607083D01*
X10207531Y-12607083D02*
X10198007Y-12645178D01*
X10198007Y-12645178D02*
X10188483Y-12664226D01*
X10188483Y-12664226D02*
X10178960Y-12673750D01*
X10178960Y-12673750D02*
X10159912Y-12683274D01*
X10159912Y-12683274D02*
X10140864Y-12683274D01*
X10140864Y-12683274D02*
X10121817Y-12673750D01*
X10121817Y-12673750D02*
X10112293Y-12664226D01*
X10112293Y-12664226D02*
X10102769Y-12645178D01*
X10102769Y-12645178D02*
X10093245Y-12607083D01*
X10093245Y-12607083D02*
X10093245Y-12559464D01*
X10093245Y-12559464D02*
X10102769Y-12521369D01*
X10102769Y-12521369D02*
X10112293Y-12502321D01*
X10112293Y-12502321D02*
X10121817Y-12492798D01*
X10121817Y-12492798D02*
X10140864Y-12483274D01*
X10293245Y-12664226D02*
X10302769Y-12673750D01*
X10302769Y-12673750D02*
X10293245Y-12683274D01*
X10293245Y-12683274D02*
X10283721Y-12673750D01*
X10283721Y-12673750D02*
X10293245Y-12664226D01*
X10293245Y-12664226D02*
X10293245Y-12683274D01*
X10474198Y-12549940D02*
X10474198Y-12683274D01*
X10426579Y-12473750D02*
X10378960Y-12616607D01*
X10378960Y-12616607D02*
X10502769Y-12616607D01*
X10617055Y-12483274D02*
X10636102Y-12483274D01*
X10636102Y-12483274D02*
X10655150Y-12492798D01*
X10655150Y-12492798D02*
X10664674Y-12502321D01*
X10664674Y-12502321D02*
X10674198Y-12521369D01*
X10674198Y-12521369D02*
X10683721Y-12559464D01*
X10683721Y-12559464D02*
X10683721Y-12607083D01*
X10683721Y-12607083D02*
X10674198Y-12645178D01*
X10674198Y-12645178D02*
X10664674Y-12664226D01*
X10664674Y-12664226D02*
X10655150Y-12673750D01*
X10655150Y-12673750D02*
X10636102Y-12683274D01*
X10636102Y-12683274D02*
X10617055Y-12683274D01*
X10617055Y-12683274D02*
X10598007Y-12673750D01*
X10598007Y-12673750D02*
X10588483Y-12664226D01*
X10588483Y-12664226D02*
X10578960Y-12645178D01*
X10578960Y-12645178D02*
X10569436Y-12607083D01*
X10569436Y-12607083D02*
X10569436Y-12559464D01*
X10569436Y-12559464D02*
X10578960Y-12521369D01*
X10578960Y-12521369D02*
X10588483Y-12502321D01*
X10588483Y-12502321D02*
X10598007Y-12492798D01*
X10598007Y-12492798D02*
X10617055Y-12483274D01*
X10807531Y-12483274D02*
X10826579Y-12483274D01*
X10826579Y-12483274D02*
X10845626Y-12492798D01*
X10845626Y-12492798D02*
X10855150Y-12502321D01*
X10855150Y-12502321D02*
X10864674Y-12521369D01*
X10864674Y-12521369D02*
X10874198Y-12559464D01*
X10874198Y-12559464D02*
X10874198Y-12607083D01*
X10874198Y-12607083D02*
X10864674Y-12645178D01*
X10864674Y-12645178D02*
X10855150Y-12664226D01*
X10855150Y-12664226D02*
X10845626Y-12673750D01*
X10845626Y-12673750D02*
X10826579Y-12683274D01*
X10826579Y-12683274D02*
X10807531Y-12683274D01*
X10807531Y-12683274D02*
X10788483Y-12673750D01*
X10788483Y-12673750D02*
X10778960Y-12664226D01*
X10778960Y-12664226D02*
X10769436Y-12645178D01*
X10769436Y-12645178D02*
X10759912Y-12607083D01*
X10759912Y-12607083D02*
X10759912Y-12559464D01*
X10759912Y-12559464D02*
X10769436Y-12521369D01*
X10769436Y-12521369D02*
X10778960Y-12502321D01*
X10778960Y-12502321D02*
X10788483Y-12492798D01*
X10788483Y-12492798D02*
X10807531Y-12483274D01*
X10959912Y-12683274D02*
X10959912Y-12549940D01*
X10959912Y-12568988D02*
X10969436Y-12559464D01*
X10969436Y-12559464D02*
X10988483Y-12549940D01*
X10988483Y-12549940D02*
X11017055Y-12549940D01*
X11017055Y-12549940D02*
X11036102Y-12559464D01*
X11036102Y-12559464D02*
X11045626Y-12578512D01*
X11045626Y-12578512D02*
X11045626Y-12683274D01*
X11045626Y-12578512D02*
X11055150Y-12559464D01*
X11055150Y-12559464D02*
X11074198Y-12549940D01*
X11074198Y-12549940D02*
X11102769Y-12549940D01*
X11102769Y-12549940D02*
X11121817Y-12559464D01*
X11121817Y-12559464D02*
X11131341Y-12578512D01*
X11131341Y-12578512D02*
X11131341Y-12683274D01*
X11226579Y-12683274D02*
X11226579Y-12549940D01*
X11226579Y-12568988D02*
X11236102Y-12559464D01*
X11236102Y-12559464D02*
X11255150Y-12549940D01*
X11255150Y-12549940D02*
X11283721Y-12549940D01*
X11283721Y-12549940D02*
X11302769Y-12559464D01*
X11302769Y-12559464D02*
X11312293Y-12578512D01*
X11312293Y-12578512D02*
X11312293Y-12683274D01*
X11312293Y-12578512D02*
X11321817Y-12559464D01*
X11321817Y-12559464D02*
X11340864Y-12549940D01*
X11340864Y-12549940D02*
X11369436Y-12549940D01*
X11369436Y-12549940D02*
X11388483Y-12559464D01*
X11388483Y-12559464D02*
X11398007Y-12578512D01*
X11398007Y-12578512D02*
X11398007Y-12683274D01*
X11788483Y-12473750D02*
X11617055Y-12730893D01*
X12045626Y-12483274D02*
X12064674Y-12483274D01*
X12064674Y-12483274D02*
X12083722Y-12492798D01*
X12083722Y-12492798D02*
X12093245Y-12502321D01*
X12093245Y-12502321D02*
X12102769Y-12521369D01*
X12102769Y-12521369D02*
X12112293Y-12559464D01*
X12112293Y-12559464D02*
X12112293Y-12607083D01*
X12112293Y-12607083D02*
X12102769Y-12645178D01*
X12102769Y-12645178D02*
X12093245Y-12664226D01*
X12093245Y-12664226D02*
X12083722Y-12673750D01*
X12083722Y-12673750D02*
X12064674Y-12683274D01*
X12064674Y-12683274D02*
X12045626Y-12683274D01*
X12045626Y-12683274D02*
X12026579Y-12673750D01*
X12026579Y-12673750D02*
X12017055Y-12664226D01*
X12017055Y-12664226D02*
X12007531Y-12645178D01*
X12007531Y-12645178D02*
X11998007Y-12607083D01*
X11998007Y-12607083D02*
X11998007Y-12559464D01*
X11998007Y-12559464D02*
X12007531Y-12521369D01*
X12007531Y-12521369D02*
X12017055Y-12502321D01*
X12017055Y-12502321D02*
X12026579Y-12492798D01*
X12026579Y-12492798D02*
X12045626Y-12483274D01*
X12198007Y-12664226D02*
X12207531Y-12673750D01*
X12207531Y-12673750D02*
X12198007Y-12683274D01*
X12198007Y-12683274D02*
X12188483Y-12673750D01*
X12188483Y-12673750D02*
X12198007Y-12664226D01*
X12198007Y-12664226D02*
X12198007Y-12683274D01*
X12331341Y-12483274D02*
X12350388Y-12483274D01*
X12350388Y-12483274D02*
X12369436Y-12492798D01*
X12369436Y-12492798D02*
X12378960Y-12502321D01*
X12378960Y-12502321D02*
X12388483Y-12521369D01*
X12388483Y-12521369D02*
X12398007Y-12559464D01*
X12398007Y-12559464D02*
X12398007Y-12607083D01*
X12398007Y-12607083D02*
X12388483Y-12645178D01*
X12388483Y-12645178D02*
X12378960Y-12664226D01*
X12378960Y-12664226D02*
X12369436Y-12673750D01*
X12369436Y-12673750D02*
X12350388Y-12683274D01*
X12350388Y-12683274D02*
X12331341Y-12683274D01*
X12331341Y-12683274D02*
X12312293Y-12673750D01*
X12312293Y-12673750D02*
X12302769Y-12664226D01*
X12302769Y-12664226D02*
X12293245Y-12645178D01*
X12293245Y-12645178D02*
X12283722Y-12607083D01*
X12283722Y-12607083D02*
X12283722Y-12559464D01*
X12283722Y-12559464D02*
X12293245Y-12521369D01*
X12293245Y-12521369D02*
X12302769Y-12502321D01*
X12302769Y-12502321D02*
X12312293Y-12492798D01*
X12312293Y-12492798D02*
X12331341Y-12483274D01*
X12588483Y-12683274D02*
X12474198Y-12683274D01*
X12531341Y-12683274D02*
X12531341Y-12483274D01*
X12531341Y-12483274D02*
X12512293Y-12511845D01*
X12512293Y-12511845D02*
X12493245Y-12530893D01*
X12493245Y-12530893D02*
X12474198Y-12540417D01*
X12769436Y-12483274D02*
X12674198Y-12483274D01*
X12674198Y-12483274D02*
X12664674Y-12578512D01*
X12664674Y-12578512D02*
X12674198Y-12568988D01*
X12674198Y-12568988D02*
X12693245Y-12559464D01*
X12693245Y-12559464D02*
X12740864Y-12559464D01*
X12740864Y-12559464D02*
X12759912Y-12568988D01*
X12759912Y-12568988D02*
X12769436Y-12578512D01*
X12769436Y-12578512D02*
X12778960Y-12597559D01*
X12778960Y-12597559D02*
X12778960Y-12645178D01*
X12778960Y-12645178D02*
X12769436Y-12664226D01*
X12769436Y-12664226D02*
X12759912Y-12673750D01*
X12759912Y-12673750D02*
X12740864Y-12683274D01*
X12740864Y-12683274D02*
X12693245Y-12683274D01*
X12693245Y-12683274D02*
X12674198Y-12673750D01*
X12674198Y-12673750D02*
X12664674Y-12664226D01*
X12845626Y-12483274D02*
X12978960Y-12483274D01*
X12978960Y-12483274D02*
X12893245Y-12683274D01*
X13045626Y-12483274D02*
X13045626Y-12521369D01*
X13121817Y-12483274D02*
X13121817Y-12521369D01*
X13417055Y-12759464D02*
X13407531Y-12749940D01*
X13407531Y-12749940D02*
X13388484Y-12721369D01*
X13388484Y-12721369D02*
X13378960Y-12702321D01*
X13378960Y-12702321D02*
X13369436Y-12673750D01*
X13369436Y-12673750D02*
X13359912Y-12626131D01*
X13359912Y-12626131D02*
X13359912Y-12588036D01*
X13359912Y-12588036D02*
X13369436Y-12540417D01*
X13369436Y-12540417D02*
X13378960Y-12511845D01*
X13378960Y-12511845D02*
X13388484Y-12492798D01*
X13388484Y-12492798D02*
X13407531Y-12464226D01*
X13407531Y-12464226D02*
X13417055Y-12454702D01*
X13483722Y-12502321D02*
X13493245Y-12492798D01*
X13493245Y-12492798D02*
X13512293Y-12483274D01*
X13512293Y-12483274D02*
X13559912Y-12483274D01*
X13559912Y-12483274D02*
X13578960Y-12492798D01*
X13578960Y-12492798D02*
X13588484Y-12502321D01*
X13588484Y-12502321D02*
X13598007Y-12521369D01*
X13598007Y-12521369D02*
X13598007Y-12540417D01*
X13598007Y-12540417D02*
X13588484Y-12568988D01*
X13588484Y-12568988D02*
X13474198Y-12683274D01*
X13474198Y-12683274D02*
X13598007Y-12683274D01*
X13788484Y-12683274D02*
X13674198Y-12683274D01*
X13731341Y-12683274D02*
X13731341Y-12483274D01*
X13731341Y-12483274D02*
X13712293Y-12511845D01*
X13712293Y-12511845D02*
X13693245Y-12530893D01*
X13693245Y-12530893D02*
X13674198Y-12540417D01*
X14026579Y-12683274D02*
X14026579Y-12483274D01*
X14112293Y-12683274D02*
X14112293Y-12578512D01*
X14112293Y-12578512D02*
X14102769Y-12559464D01*
X14102769Y-12559464D02*
X14083722Y-12549940D01*
X14083722Y-12549940D02*
X14055150Y-12549940D01*
X14055150Y-12549940D02*
X14036103Y-12559464D01*
X14036103Y-12559464D02*
X14026579Y-12568988D01*
X14236103Y-12683274D02*
X14217055Y-12673750D01*
X14217055Y-12673750D02*
X14207531Y-12664226D01*
X14207531Y-12664226D02*
X14198007Y-12645178D01*
X14198007Y-12645178D02*
X14198007Y-12588036D01*
X14198007Y-12588036D02*
X14207531Y-12568988D01*
X14207531Y-12568988D02*
X14217055Y-12559464D01*
X14217055Y-12559464D02*
X14236103Y-12549940D01*
X14236103Y-12549940D02*
X14264674Y-12549940D01*
X14264674Y-12549940D02*
X14283722Y-12559464D01*
X14283722Y-12559464D02*
X14293246Y-12568988D01*
X14293246Y-12568988D02*
X14302769Y-12588036D01*
X14302769Y-12588036D02*
X14302769Y-12645178D01*
X14302769Y-12645178D02*
X14293246Y-12664226D01*
X14293246Y-12664226D02*
X14283722Y-12673750D01*
X14283722Y-12673750D02*
X14264674Y-12683274D01*
X14264674Y-12683274D02*
X14236103Y-12683274D01*
X14417055Y-12683274D02*
X14398007Y-12673750D01*
X14398007Y-12673750D02*
X14388484Y-12654702D01*
X14388484Y-12654702D02*
X14388484Y-12483274D01*
X14569436Y-12673750D02*
X14550388Y-12683274D01*
X14550388Y-12683274D02*
X14512293Y-12683274D01*
X14512293Y-12683274D02*
X14493246Y-12673750D01*
X14493246Y-12673750D02*
X14483722Y-12654702D01*
X14483722Y-12654702D02*
X14483722Y-12578512D01*
X14483722Y-12578512D02*
X14493246Y-12559464D01*
X14493246Y-12559464D02*
X14512293Y-12549940D01*
X14512293Y-12549940D02*
X14550388Y-12549940D01*
X14550388Y-12549940D02*
X14569436Y-12559464D01*
X14569436Y-12559464D02*
X14578960Y-12578512D01*
X14578960Y-12578512D02*
X14578960Y-12597559D01*
X14578960Y-12597559D02*
X14483722Y-12616607D01*
X14655150Y-12673750D02*
X14674198Y-12683274D01*
X14674198Y-12683274D02*
X14712293Y-12683274D01*
X14712293Y-12683274D02*
X14731341Y-12673750D01*
X14731341Y-12673750D02*
X14740865Y-12654702D01*
X14740865Y-12654702D02*
X14740865Y-12645178D01*
X14740865Y-12645178D02*
X14731341Y-12626131D01*
X14731341Y-12626131D02*
X14712293Y-12616607D01*
X14712293Y-12616607D02*
X14683722Y-12616607D01*
X14683722Y-12616607D02*
X14664674Y-12607083D01*
X14664674Y-12607083D02*
X14655150Y-12588036D01*
X14655150Y-12588036D02*
X14655150Y-12578512D01*
X14655150Y-12578512D02*
X14664674Y-12559464D01*
X14664674Y-12559464D02*
X14683722Y-12549940D01*
X14683722Y-12549940D02*
X14712293Y-12549940D01*
X14712293Y-12549940D02*
X14731341Y-12559464D01*
X14807531Y-12759464D02*
X14817055Y-12749940D01*
X14817055Y-12749940D02*
X14836103Y-12721369D01*
X14836103Y-12721369D02*
X14845627Y-12702321D01*
X14845627Y-12702321D02*
X14855150Y-12673750D01*
X14855150Y-12673750D02*
X14864674Y-12626131D01*
X14864674Y-12626131D02*
X14864674Y-12588036D01*
X14864674Y-12588036D02*
X14855150Y-12540417D01*
X14855150Y-12540417D02*
X14845627Y-12511845D01*
X14845627Y-12511845D02*
X14836103Y-12492798D01*
X14836103Y-12492798D02*
X14817055Y-12464226D01*
X14817055Y-12464226D02*
X14807531Y-12454702D01*
D13*
X9855150Y-12854750D02*
G75*
G03*
X9855150Y-12854750I-50000J0D01*
G01*
D11*
X10207531Y-12947274D02*
X10093245Y-12947274D01*
X10150388Y-12947274D02*
X10150388Y-12747274D01*
X10150388Y-12747274D02*
X10131340Y-12775845D01*
X10131340Y-12775845D02*
X10112293Y-12794893D01*
X10112293Y-12794893D02*
X10093245Y-12804417D01*
X10293245Y-12928226D02*
X10302769Y-12937750D01*
X10302769Y-12937750D02*
X10293245Y-12947274D01*
X10293245Y-12947274D02*
X10283721Y-12937750D01*
X10283721Y-12937750D02*
X10293245Y-12928226D01*
X10293245Y-12928226D02*
X10293245Y-12947274D01*
X10426579Y-12747274D02*
X10445626Y-12747274D01*
X10445626Y-12747274D02*
X10464674Y-12756798D01*
X10464674Y-12756798D02*
X10474198Y-12766321D01*
X10474198Y-12766321D02*
X10483721Y-12785369D01*
X10483721Y-12785369D02*
X10493245Y-12823464D01*
X10493245Y-12823464D02*
X10493245Y-12871083D01*
X10493245Y-12871083D02*
X10483721Y-12909178D01*
X10483721Y-12909178D02*
X10474198Y-12928226D01*
X10474198Y-12928226D02*
X10464674Y-12937750D01*
X10464674Y-12937750D02*
X10445626Y-12947274D01*
X10445626Y-12947274D02*
X10426579Y-12947274D01*
X10426579Y-12947274D02*
X10407531Y-12937750D01*
X10407531Y-12937750D02*
X10398007Y-12928226D01*
X10398007Y-12928226D02*
X10388483Y-12909178D01*
X10388483Y-12909178D02*
X10378960Y-12871083D01*
X10378960Y-12871083D02*
X10378960Y-12823464D01*
X10378960Y-12823464D02*
X10388483Y-12785369D01*
X10388483Y-12785369D02*
X10398007Y-12766321D01*
X10398007Y-12766321D02*
X10407531Y-12756798D01*
X10407531Y-12756798D02*
X10426579Y-12747274D01*
X10617055Y-12747274D02*
X10636102Y-12747274D01*
X10636102Y-12747274D02*
X10655150Y-12756798D01*
X10655150Y-12756798D02*
X10664674Y-12766321D01*
X10664674Y-12766321D02*
X10674198Y-12785369D01*
X10674198Y-12785369D02*
X10683721Y-12823464D01*
X10683721Y-12823464D02*
X10683721Y-12871083D01*
X10683721Y-12871083D02*
X10674198Y-12909178D01*
X10674198Y-12909178D02*
X10664674Y-12928226D01*
X10664674Y-12928226D02*
X10655150Y-12937750D01*
X10655150Y-12937750D02*
X10636102Y-12947274D01*
X10636102Y-12947274D02*
X10617055Y-12947274D01*
X10617055Y-12947274D02*
X10598007Y-12937750D01*
X10598007Y-12937750D02*
X10588483Y-12928226D01*
X10588483Y-12928226D02*
X10578960Y-12909178D01*
X10578960Y-12909178D02*
X10569436Y-12871083D01*
X10569436Y-12871083D02*
X10569436Y-12823464D01*
X10569436Y-12823464D02*
X10578960Y-12785369D01*
X10578960Y-12785369D02*
X10588483Y-12766321D01*
X10588483Y-12766321D02*
X10598007Y-12756798D01*
X10598007Y-12756798D02*
X10617055Y-12747274D01*
X10807531Y-12747274D02*
X10826579Y-12747274D01*
X10826579Y-12747274D02*
X10845626Y-12756798D01*
X10845626Y-12756798D02*
X10855150Y-12766321D01*
X10855150Y-12766321D02*
X10864674Y-12785369D01*
X10864674Y-12785369D02*
X10874198Y-12823464D01*
X10874198Y-12823464D02*
X10874198Y-12871083D01*
X10874198Y-12871083D02*
X10864674Y-12909178D01*
X10864674Y-12909178D02*
X10855150Y-12928226D01*
X10855150Y-12928226D02*
X10845626Y-12937750D01*
X10845626Y-12937750D02*
X10826579Y-12947274D01*
X10826579Y-12947274D02*
X10807531Y-12947274D01*
X10807531Y-12947274D02*
X10788483Y-12937750D01*
X10788483Y-12937750D02*
X10778960Y-12928226D01*
X10778960Y-12928226D02*
X10769436Y-12909178D01*
X10769436Y-12909178D02*
X10759912Y-12871083D01*
X10759912Y-12871083D02*
X10759912Y-12823464D01*
X10759912Y-12823464D02*
X10769436Y-12785369D01*
X10769436Y-12785369D02*
X10778960Y-12766321D01*
X10778960Y-12766321D02*
X10788483Y-12756798D01*
X10788483Y-12756798D02*
X10807531Y-12747274D01*
X10959912Y-12947274D02*
X10959912Y-12813940D01*
X10959912Y-12832988D02*
X10969436Y-12823464D01*
X10969436Y-12823464D02*
X10988483Y-12813940D01*
X10988483Y-12813940D02*
X11017055Y-12813940D01*
X11017055Y-12813940D02*
X11036102Y-12823464D01*
X11036102Y-12823464D02*
X11045626Y-12842512D01*
X11045626Y-12842512D02*
X11045626Y-12947274D01*
X11045626Y-12842512D02*
X11055150Y-12823464D01*
X11055150Y-12823464D02*
X11074198Y-12813940D01*
X11074198Y-12813940D02*
X11102769Y-12813940D01*
X11102769Y-12813940D02*
X11121817Y-12823464D01*
X11121817Y-12823464D02*
X11131341Y-12842512D01*
X11131341Y-12842512D02*
X11131341Y-12947274D01*
X11226579Y-12947274D02*
X11226579Y-12813940D01*
X11226579Y-12832988D02*
X11236102Y-12823464D01*
X11236102Y-12823464D02*
X11255150Y-12813940D01*
X11255150Y-12813940D02*
X11283721Y-12813940D01*
X11283721Y-12813940D02*
X11302769Y-12823464D01*
X11302769Y-12823464D02*
X11312293Y-12842512D01*
X11312293Y-12842512D02*
X11312293Y-12947274D01*
X11312293Y-12842512D02*
X11321817Y-12823464D01*
X11321817Y-12823464D02*
X11340864Y-12813940D01*
X11340864Y-12813940D02*
X11369436Y-12813940D01*
X11369436Y-12813940D02*
X11388483Y-12823464D01*
X11388483Y-12823464D02*
X11398007Y-12842512D01*
X11398007Y-12842512D02*
X11398007Y-12947274D01*
X11788483Y-12737750D02*
X11617055Y-12994893D01*
X12045626Y-12747274D02*
X12064674Y-12747274D01*
X12064674Y-12747274D02*
X12083722Y-12756798D01*
X12083722Y-12756798D02*
X12093245Y-12766321D01*
X12093245Y-12766321D02*
X12102769Y-12785369D01*
X12102769Y-12785369D02*
X12112293Y-12823464D01*
X12112293Y-12823464D02*
X12112293Y-12871083D01*
X12112293Y-12871083D02*
X12102769Y-12909178D01*
X12102769Y-12909178D02*
X12093245Y-12928226D01*
X12093245Y-12928226D02*
X12083722Y-12937750D01*
X12083722Y-12937750D02*
X12064674Y-12947274D01*
X12064674Y-12947274D02*
X12045626Y-12947274D01*
X12045626Y-12947274D02*
X12026579Y-12937750D01*
X12026579Y-12937750D02*
X12017055Y-12928226D01*
X12017055Y-12928226D02*
X12007531Y-12909178D01*
X12007531Y-12909178D02*
X11998007Y-12871083D01*
X11998007Y-12871083D02*
X11998007Y-12823464D01*
X11998007Y-12823464D02*
X12007531Y-12785369D01*
X12007531Y-12785369D02*
X12017055Y-12766321D01*
X12017055Y-12766321D02*
X12026579Y-12756798D01*
X12026579Y-12756798D02*
X12045626Y-12747274D01*
X12198007Y-12928226D02*
X12207531Y-12937750D01*
X12207531Y-12937750D02*
X12198007Y-12947274D01*
X12198007Y-12947274D02*
X12188483Y-12937750D01*
X12188483Y-12937750D02*
X12198007Y-12928226D01*
X12198007Y-12928226D02*
X12198007Y-12947274D01*
X12331341Y-12747274D02*
X12350388Y-12747274D01*
X12350388Y-12747274D02*
X12369436Y-12756798D01*
X12369436Y-12756798D02*
X12378960Y-12766321D01*
X12378960Y-12766321D02*
X12388483Y-12785369D01*
X12388483Y-12785369D02*
X12398007Y-12823464D01*
X12398007Y-12823464D02*
X12398007Y-12871083D01*
X12398007Y-12871083D02*
X12388483Y-12909178D01*
X12388483Y-12909178D02*
X12378960Y-12928226D01*
X12378960Y-12928226D02*
X12369436Y-12937750D01*
X12369436Y-12937750D02*
X12350388Y-12947274D01*
X12350388Y-12947274D02*
X12331341Y-12947274D01*
X12331341Y-12947274D02*
X12312293Y-12937750D01*
X12312293Y-12937750D02*
X12302769Y-12928226D01*
X12302769Y-12928226D02*
X12293245Y-12909178D01*
X12293245Y-12909178D02*
X12283722Y-12871083D01*
X12283722Y-12871083D02*
X12283722Y-12823464D01*
X12283722Y-12823464D02*
X12293245Y-12785369D01*
X12293245Y-12785369D02*
X12302769Y-12766321D01*
X12302769Y-12766321D02*
X12312293Y-12756798D01*
X12312293Y-12756798D02*
X12331341Y-12747274D01*
X12464674Y-12747274D02*
X12588483Y-12747274D01*
X12588483Y-12747274D02*
X12521817Y-12823464D01*
X12521817Y-12823464D02*
X12550388Y-12823464D01*
X12550388Y-12823464D02*
X12569436Y-12832988D01*
X12569436Y-12832988D02*
X12578960Y-12842512D01*
X12578960Y-12842512D02*
X12588483Y-12861559D01*
X12588483Y-12861559D02*
X12588483Y-12909178D01*
X12588483Y-12909178D02*
X12578960Y-12928226D01*
X12578960Y-12928226D02*
X12569436Y-12937750D01*
X12569436Y-12937750D02*
X12550388Y-12947274D01*
X12550388Y-12947274D02*
X12493245Y-12947274D01*
X12493245Y-12947274D02*
X12474198Y-12937750D01*
X12474198Y-12937750D02*
X12464674Y-12928226D01*
X12683722Y-12947274D02*
X12721817Y-12947274D01*
X12721817Y-12947274D02*
X12740864Y-12937750D01*
X12740864Y-12937750D02*
X12750388Y-12928226D01*
X12750388Y-12928226D02*
X12769436Y-12899655D01*
X12769436Y-12899655D02*
X12778960Y-12861559D01*
X12778960Y-12861559D02*
X12778960Y-12785369D01*
X12778960Y-12785369D02*
X12769436Y-12766321D01*
X12769436Y-12766321D02*
X12759912Y-12756798D01*
X12759912Y-12756798D02*
X12740864Y-12747274D01*
X12740864Y-12747274D02*
X12702769Y-12747274D01*
X12702769Y-12747274D02*
X12683722Y-12756798D01*
X12683722Y-12756798D02*
X12674198Y-12766321D01*
X12674198Y-12766321D02*
X12664674Y-12785369D01*
X12664674Y-12785369D02*
X12664674Y-12832988D01*
X12664674Y-12832988D02*
X12674198Y-12852036D01*
X12674198Y-12852036D02*
X12683722Y-12861559D01*
X12683722Y-12861559D02*
X12702769Y-12871083D01*
X12702769Y-12871083D02*
X12740864Y-12871083D01*
X12740864Y-12871083D02*
X12759912Y-12861559D01*
X12759912Y-12861559D02*
X12769436Y-12852036D01*
X12769436Y-12852036D02*
X12778960Y-12832988D01*
X12950388Y-12813940D02*
X12950388Y-12947274D01*
X12902769Y-12737750D02*
X12855150Y-12880607D01*
X12855150Y-12880607D02*
X12978960Y-12880607D01*
X13045626Y-12747274D02*
X13045626Y-12785369D01*
X13121817Y-12747274D02*
X13121817Y-12785369D01*
X13417055Y-13023464D02*
X13407531Y-13013940D01*
X13407531Y-13013940D02*
X13388484Y-12985369D01*
X13388484Y-12985369D02*
X13378960Y-12966321D01*
X13378960Y-12966321D02*
X13369436Y-12937750D01*
X13369436Y-12937750D02*
X13359912Y-12890131D01*
X13359912Y-12890131D02*
X13359912Y-12852036D01*
X13359912Y-12852036D02*
X13369436Y-12804417D01*
X13369436Y-12804417D02*
X13378960Y-12775845D01*
X13378960Y-12775845D02*
X13388484Y-12756798D01*
X13388484Y-12756798D02*
X13407531Y-12728226D01*
X13407531Y-12728226D02*
X13417055Y-12718702D01*
X13483722Y-12766321D02*
X13493245Y-12756798D01*
X13493245Y-12756798D02*
X13512293Y-12747274D01*
X13512293Y-12747274D02*
X13559912Y-12747274D01*
X13559912Y-12747274D02*
X13578960Y-12756798D01*
X13578960Y-12756798D02*
X13588484Y-12766321D01*
X13588484Y-12766321D02*
X13598007Y-12785369D01*
X13598007Y-12785369D02*
X13598007Y-12804417D01*
X13598007Y-12804417D02*
X13588484Y-12832988D01*
X13588484Y-12832988D02*
X13474198Y-12947274D01*
X13474198Y-12947274D02*
X13598007Y-12947274D01*
X13721817Y-12747274D02*
X13740865Y-12747274D01*
X13740865Y-12747274D02*
X13759912Y-12756798D01*
X13759912Y-12756798D02*
X13769436Y-12766321D01*
X13769436Y-12766321D02*
X13778960Y-12785369D01*
X13778960Y-12785369D02*
X13788484Y-12823464D01*
X13788484Y-12823464D02*
X13788484Y-12871083D01*
X13788484Y-12871083D02*
X13778960Y-12909178D01*
X13778960Y-12909178D02*
X13769436Y-12928226D01*
X13769436Y-12928226D02*
X13759912Y-12937750D01*
X13759912Y-12937750D02*
X13740865Y-12947274D01*
X13740865Y-12947274D02*
X13721817Y-12947274D01*
X13721817Y-12947274D02*
X13702769Y-12937750D01*
X13702769Y-12937750D02*
X13693245Y-12928226D01*
X13693245Y-12928226D02*
X13683722Y-12909178D01*
X13683722Y-12909178D02*
X13674198Y-12871083D01*
X13674198Y-12871083D02*
X13674198Y-12823464D01*
X13674198Y-12823464D02*
X13683722Y-12785369D01*
X13683722Y-12785369D02*
X13693245Y-12766321D01*
X13693245Y-12766321D02*
X13702769Y-12756798D01*
X13702769Y-12756798D02*
X13721817Y-12747274D01*
X14026579Y-12947274D02*
X14026579Y-12747274D01*
X14112293Y-12947274D02*
X14112293Y-12842512D01*
X14112293Y-12842512D02*
X14102769Y-12823464D01*
X14102769Y-12823464D02*
X14083722Y-12813940D01*
X14083722Y-12813940D02*
X14055150Y-12813940D01*
X14055150Y-12813940D02*
X14036103Y-12823464D01*
X14036103Y-12823464D02*
X14026579Y-12832988D01*
X14236103Y-12947274D02*
X14217055Y-12937750D01*
X14217055Y-12937750D02*
X14207531Y-12928226D01*
X14207531Y-12928226D02*
X14198007Y-12909178D01*
X14198007Y-12909178D02*
X14198007Y-12852036D01*
X14198007Y-12852036D02*
X14207531Y-12832988D01*
X14207531Y-12832988D02*
X14217055Y-12823464D01*
X14217055Y-12823464D02*
X14236103Y-12813940D01*
X14236103Y-12813940D02*
X14264674Y-12813940D01*
X14264674Y-12813940D02*
X14283722Y-12823464D01*
X14283722Y-12823464D02*
X14293246Y-12832988D01*
X14293246Y-12832988D02*
X14302769Y-12852036D01*
X14302769Y-12852036D02*
X14302769Y-12909178D01*
X14302769Y-12909178D02*
X14293246Y-12928226D01*
X14293246Y-12928226D02*
X14283722Y-12937750D01*
X14283722Y-12937750D02*
X14264674Y-12947274D01*
X14264674Y-12947274D02*
X14236103Y-12947274D01*
X14417055Y-12947274D02*
X14398007Y-12937750D01*
X14398007Y-12937750D02*
X14388484Y-12918702D01*
X14388484Y-12918702D02*
X14388484Y-12747274D01*
X14569436Y-12937750D02*
X14550388Y-12947274D01*
X14550388Y-12947274D02*
X14512293Y-12947274D01*
X14512293Y-12947274D02*
X14493246Y-12937750D01*
X14493246Y-12937750D02*
X14483722Y-12918702D01*
X14483722Y-12918702D02*
X14483722Y-12842512D01*
X14483722Y-12842512D02*
X14493246Y-12823464D01*
X14493246Y-12823464D02*
X14512293Y-12813940D01*
X14512293Y-12813940D02*
X14550388Y-12813940D01*
X14550388Y-12813940D02*
X14569436Y-12823464D01*
X14569436Y-12823464D02*
X14578960Y-12842512D01*
X14578960Y-12842512D02*
X14578960Y-12861559D01*
X14578960Y-12861559D02*
X14483722Y-12880607D01*
X14655150Y-12937750D02*
X14674198Y-12947274D01*
X14674198Y-12947274D02*
X14712293Y-12947274D01*
X14712293Y-12947274D02*
X14731341Y-12937750D01*
X14731341Y-12937750D02*
X14740865Y-12918702D01*
X14740865Y-12918702D02*
X14740865Y-12909178D01*
X14740865Y-12909178D02*
X14731341Y-12890131D01*
X14731341Y-12890131D02*
X14712293Y-12880607D01*
X14712293Y-12880607D02*
X14683722Y-12880607D01*
X14683722Y-12880607D02*
X14664674Y-12871083D01*
X14664674Y-12871083D02*
X14655150Y-12852036D01*
X14655150Y-12852036D02*
X14655150Y-12842512D01*
X14655150Y-12842512D02*
X14664674Y-12823464D01*
X14664674Y-12823464D02*
X14683722Y-12813940D01*
X14683722Y-12813940D02*
X14712293Y-12813940D01*
X14712293Y-12813940D02*
X14731341Y-12823464D01*
X14807531Y-13023464D02*
X14817055Y-13013940D01*
X14817055Y-13013940D02*
X14836103Y-12985369D01*
X14836103Y-12985369D02*
X14845627Y-12966321D01*
X14845627Y-12966321D02*
X14855150Y-12937750D01*
X14855150Y-12937750D02*
X14864674Y-12890131D01*
X14864674Y-12890131D02*
X14864674Y-12852036D01*
X14864674Y-12852036D02*
X14855150Y-12804417D01*
X14855150Y-12804417D02*
X14845627Y-12775845D01*
X14845627Y-12775845D02*
X14836103Y-12756798D01*
X14836103Y-12756798D02*
X14817055Y-12728226D01*
X14817055Y-12728226D02*
X14807531Y-12718702D01*
M02*
