G04 #@! TF.GenerationSoftware,KiCad,Pcbnew,7.0.1*
G04 #@! TF.CreationDate,2023-10-25T20:54:25+02:00*
G04 #@! TF.ProjectId,canfd_breakout,63616e66-645f-4627-9265-616b6f75742e,rev?*
G04 #@! TF.SameCoordinates,Original*
G04 #@! TF.FileFunction,Legend,Top*
G04 #@! TF.FilePolarity,Positive*
%FSLAX46Y46*%
G04 Gerber Fmt 4.6, Leading zero omitted, Abs format (unit mm)*
G04 Created by KiCad (PCBNEW 7.0.1) date 2023-10-25 20:54:25*
%MOMM*%
%LPD*%
G01*
G04 APERTURE LIST*
G04 Aperture macros list*
%AMRoundRect*
0 Rectangle with rounded corners*
0 $1 Rounding radius*
0 $2 $3 $4 $5 $6 $7 $8 $9 X,Y pos of 4 corners*
0 Add a 4 corners polygon primitive as box body*
4,1,4,$2,$3,$4,$5,$6,$7,$8,$9,$2,$3,0*
0 Add four circle primitives for the rounded corners*
1,1,$1+$1,$2,$3*
1,1,$1+$1,$4,$5*
1,1,$1+$1,$6,$7*
1,1,$1+$1,$8,$9*
0 Add four rect primitives between the rounded corners*
20,1,$1+$1,$2,$3,$4,$5,0*
20,1,$1+$1,$4,$5,$6,$7,0*
20,1,$1+$1,$6,$7,$8,$9,0*
20,1,$1+$1,$8,$9,$2,$3,0*%
G04 Aperture macros list end*
%ADD10C,0.100000*%
%ADD11C,0.150000*%
%ADD12C,0.120000*%
%ADD13RoundRect,0.250000X-0.337500X-0.475000X0.337500X-0.475000X0.337500X0.475000X-0.337500X0.475000X0*%
%ADD14RoundRect,0.250000X0.325000X0.450000X-0.325000X0.450000X-0.325000X-0.450000X0.325000X-0.450000X0*%
%ADD15RoundRect,0.250000X0.350000X0.450000X-0.350000X0.450000X-0.350000X-0.450000X0.350000X-0.450000X0*%
%ADD16RoundRect,0.250000X-0.350000X-0.450000X0.350000X-0.450000X0.350000X0.450000X-0.350000X0.450000X0*%
%ADD17RoundRect,0.250000X0.337500X0.475000X-0.337500X0.475000X-0.337500X-0.475000X0.337500X-0.475000X0*%
%ADD18R,1.700000X1.700000*%
%ADD19O,1.700000X1.700000*%
%ADD20R,1.400000X1.200000*%
%ADD21RoundRect,0.150000X0.150000X-0.825000X0.150000X0.825000X-0.150000X0.825000X-0.150000X-0.825000X0*%
%ADD22RoundRect,0.150000X0.587500X0.150000X-0.587500X0.150000X-0.587500X-0.150000X0.587500X-0.150000X0*%
G04 APERTURE END LIST*
D10*
X102782666Y-114849333D02*
X102782666Y-114382666D01*
X102782666Y-114149333D02*
X102749333Y-114182666D01*
X102749333Y-114182666D02*
X102782666Y-114216000D01*
X102782666Y-114216000D02*
X102816000Y-114182666D01*
X102816000Y-114182666D02*
X102782666Y-114149333D01*
X102782666Y-114149333D02*
X102782666Y-114216000D01*
X103215999Y-114849333D02*
X103149333Y-114816000D01*
X103149333Y-114816000D02*
X103115999Y-114782666D01*
X103115999Y-114782666D02*
X103082666Y-114716000D01*
X103082666Y-114716000D02*
X103082666Y-114516000D01*
X103082666Y-114516000D02*
X103115999Y-114449333D01*
X103115999Y-114449333D02*
X103149333Y-114416000D01*
X103149333Y-114416000D02*
X103215999Y-114382666D01*
X103215999Y-114382666D02*
X103315999Y-114382666D01*
X103315999Y-114382666D02*
X103382666Y-114416000D01*
X103382666Y-114416000D02*
X103415999Y-114449333D01*
X103415999Y-114449333D02*
X103449333Y-114516000D01*
X103449333Y-114516000D02*
X103449333Y-114716000D01*
X103449333Y-114716000D02*
X103415999Y-114782666D01*
X103415999Y-114782666D02*
X103382666Y-114816000D01*
X103382666Y-114816000D02*
X103315999Y-114849333D01*
X103315999Y-114849333D02*
X103215999Y-114849333D01*
X103749332Y-114782666D02*
X103782666Y-114816000D01*
X103782666Y-114816000D02*
X103749332Y-114849333D01*
X103749332Y-114849333D02*
X103715999Y-114816000D01*
X103715999Y-114816000D02*
X103749332Y-114782666D01*
X103749332Y-114782666D02*
X103749332Y-114849333D01*
X103749332Y-114416000D02*
X103782666Y-114449333D01*
X103782666Y-114449333D02*
X103749332Y-114482666D01*
X103749332Y-114482666D02*
X103715999Y-114449333D01*
X103715999Y-114449333D02*
X103749332Y-114416000D01*
X103749332Y-114416000D02*
X103749332Y-114482666D01*
X104015999Y-114149333D02*
X104449332Y-114149333D01*
X104449332Y-114149333D02*
X104215999Y-114416000D01*
X104215999Y-114416000D02*
X104315999Y-114416000D01*
X104315999Y-114416000D02*
X104382665Y-114449333D01*
X104382665Y-114449333D02*
X104415999Y-114482666D01*
X104415999Y-114482666D02*
X104449332Y-114549333D01*
X104449332Y-114549333D02*
X104449332Y-114716000D01*
X104449332Y-114716000D02*
X104415999Y-114782666D01*
X104415999Y-114782666D02*
X104382665Y-114816000D01*
X104382665Y-114816000D02*
X104315999Y-114849333D01*
X104315999Y-114849333D02*
X104115999Y-114849333D01*
X104115999Y-114849333D02*
X104049332Y-114816000D01*
X104049332Y-114816000D02*
X104015999Y-114782666D01*
X104649332Y-114149333D02*
X104882666Y-114849333D01*
X104882666Y-114849333D02*
X105115999Y-114149333D01*
X105282666Y-114149333D02*
X105715999Y-114149333D01*
X105715999Y-114149333D02*
X105482666Y-114416000D01*
X105482666Y-114416000D02*
X105582666Y-114416000D01*
X105582666Y-114416000D02*
X105649332Y-114449333D01*
X105649332Y-114449333D02*
X105682666Y-114482666D01*
X105682666Y-114482666D02*
X105715999Y-114549333D01*
X105715999Y-114549333D02*
X105715999Y-114716000D01*
X105715999Y-114716000D02*
X105682666Y-114782666D01*
X105682666Y-114782666D02*
X105649332Y-114816000D01*
X105649332Y-114816000D02*
X105582666Y-114849333D01*
X105582666Y-114849333D02*
X105382666Y-114849333D01*
X105382666Y-114849333D02*
X105315999Y-114816000D01*
X105315999Y-114816000D02*
X105282666Y-114782666D01*
X107949332Y-114149333D02*
X107615998Y-114149333D01*
X107615998Y-114149333D02*
X107582665Y-114482666D01*
X107582665Y-114482666D02*
X107615998Y-114449333D01*
X107615998Y-114449333D02*
X107682665Y-114416000D01*
X107682665Y-114416000D02*
X107849332Y-114416000D01*
X107849332Y-114416000D02*
X107915998Y-114449333D01*
X107915998Y-114449333D02*
X107949332Y-114482666D01*
X107949332Y-114482666D02*
X107982665Y-114549333D01*
X107982665Y-114549333D02*
X107982665Y-114716000D01*
X107982665Y-114716000D02*
X107949332Y-114782666D01*
X107949332Y-114782666D02*
X107915998Y-114816000D01*
X107915998Y-114816000D02*
X107849332Y-114849333D01*
X107849332Y-114849333D02*
X107682665Y-114849333D01*
X107682665Y-114849333D02*
X107615998Y-114816000D01*
X107615998Y-114816000D02*
X107582665Y-114782666D01*
X108182665Y-114149333D02*
X108415999Y-114849333D01*
X108415999Y-114849333D02*
X108649332Y-114149333D01*
X120405666Y-118973666D02*
X120372333Y-119040333D01*
X120372333Y-119040333D02*
X120372333Y-119140333D01*
X120372333Y-119140333D02*
X120405666Y-119240333D01*
X120405666Y-119240333D02*
X120472333Y-119307000D01*
X120472333Y-119307000D02*
X120539000Y-119340333D01*
X120539000Y-119340333D02*
X120672333Y-119373666D01*
X120672333Y-119373666D02*
X120772333Y-119373666D01*
X120772333Y-119373666D02*
X120905666Y-119340333D01*
X120905666Y-119340333D02*
X120972333Y-119307000D01*
X120972333Y-119307000D02*
X121039000Y-119240333D01*
X121039000Y-119240333D02*
X121072333Y-119140333D01*
X121072333Y-119140333D02*
X121072333Y-119073666D01*
X121072333Y-119073666D02*
X121039000Y-118973666D01*
X121039000Y-118973666D02*
X121005666Y-118940333D01*
X121005666Y-118940333D02*
X120772333Y-118940333D01*
X120772333Y-118940333D02*
X120772333Y-119073666D01*
X121072333Y-118640333D02*
X120372333Y-118640333D01*
X120372333Y-118640333D02*
X121072333Y-118240333D01*
X121072333Y-118240333D02*
X120372333Y-118240333D01*
X121072333Y-117907000D02*
X120372333Y-117907000D01*
X120372333Y-117907000D02*
X120372333Y-117740333D01*
X120372333Y-117740333D02*
X120405666Y-117640333D01*
X120405666Y-117640333D02*
X120472333Y-117573667D01*
X120472333Y-117573667D02*
X120539000Y-117540333D01*
X120539000Y-117540333D02*
X120672333Y-117507000D01*
X120672333Y-117507000D02*
X120772333Y-117507000D01*
X120772333Y-117507000D02*
X120905666Y-117540333D01*
X120905666Y-117540333D02*
X120972333Y-117573667D01*
X120972333Y-117573667D02*
X121039000Y-117640333D01*
X121039000Y-117640333D02*
X121072333Y-117740333D01*
X121072333Y-117740333D02*
X121072333Y-117907000D01*
X121305666Y-117040333D02*
X120305666Y-117040333D01*
X120372333Y-116207000D02*
X120372333Y-116540333D01*
X120372333Y-116540333D02*
X120705666Y-116573666D01*
X120705666Y-116573666D02*
X120672333Y-116540333D01*
X120672333Y-116540333D02*
X120639000Y-116473666D01*
X120639000Y-116473666D02*
X120639000Y-116307000D01*
X120639000Y-116307000D02*
X120672333Y-116240333D01*
X120672333Y-116240333D02*
X120705666Y-116207000D01*
X120705666Y-116207000D02*
X120772333Y-116173666D01*
X120772333Y-116173666D02*
X120939000Y-116173666D01*
X120939000Y-116173666D02*
X121005666Y-116207000D01*
X121005666Y-116207000D02*
X121039000Y-116240333D01*
X121039000Y-116240333D02*
X121072333Y-116307000D01*
X121072333Y-116307000D02*
X121072333Y-116473666D01*
X121072333Y-116473666D02*
X121039000Y-116540333D01*
X121039000Y-116540333D02*
X121005666Y-116573666D01*
X120372333Y-115973666D02*
X121072333Y-115740333D01*
X121072333Y-115740333D02*
X120372333Y-115506999D01*
X121305666Y-114573666D02*
X120305666Y-114573666D01*
X121005666Y-113673666D02*
X121039000Y-113706999D01*
X121039000Y-113706999D02*
X121072333Y-113806999D01*
X121072333Y-113806999D02*
X121072333Y-113873666D01*
X121072333Y-113873666D02*
X121039000Y-113973666D01*
X121039000Y-113973666D02*
X120972333Y-114040333D01*
X120972333Y-114040333D02*
X120905666Y-114073666D01*
X120905666Y-114073666D02*
X120772333Y-114106999D01*
X120772333Y-114106999D02*
X120672333Y-114106999D01*
X120672333Y-114106999D02*
X120539000Y-114073666D01*
X120539000Y-114073666D02*
X120472333Y-114040333D01*
X120472333Y-114040333D02*
X120405666Y-113973666D01*
X120405666Y-113973666D02*
X120372333Y-113873666D01*
X120372333Y-113873666D02*
X120372333Y-113806999D01*
X120372333Y-113806999D02*
X120405666Y-113706999D01*
X120405666Y-113706999D02*
X120439000Y-113673666D01*
X120872333Y-113406999D02*
X120872333Y-113073666D01*
X121072333Y-113473666D02*
X120372333Y-113240333D01*
X120372333Y-113240333D02*
X121072333Y-113006999D01*
X121072333Y-112773666D02*
X120372333Y-112773666D01*
X120372333Y-112773666D02*
X121072333Y-112373666D01*
X121072333Y-112373666D02*
X120372333Y-112373666D01*
X121072333Y-111707000D02*
X121072333Y-112040333D01*
X121072333Y-112040333D02*
X120372333Y-112040333D01*
X121305666Y-111306999D02*
X120305666Y-111306999D01*
X121005666Y-110406999D02*
X121039000Y-110440332D01*
X121039000Y-110440332D02*
X121072333Y-110540332D01*
X121072333Y-110540332D02*
X121072333Y-110606999D01*
X121072333Y-110606999D02*
X121039000Y-110706999D01*
X121039000Y-110706999D02*
X120972333Y-110773666D01*
X120972333Y-110773666D02*
X120905666Y-110806999D01*
X120905666Y-110806999D02*
X120772333Y-110840332D01*
X120772333Y-110840332D02*
X120672333Y-110840332D01*
X120672333Y-110840332D02*
X120539000Y-110806999D01*
X120539000Y-110806999D02*
X120472333Y-110773666D01*
X120472333Y-110773666D02*
X120405666Y-110706999D01*
X120405666Y-110706999D02*
X120372333Y-110606999D01*
X120372333Y-110606999D02*
X120372333Y-110540332D01*
X120372333Y-110540332D02*
X120405666Y-110440332D01*
X120405666Y-110440332D02*
X120439000Y-110406999D01*
X120872333Y-110140332D02*
X120872333Y-109806999D01*
X121072333Y-110206999D02*
X120372333Y-109973666D01*
X120372333Y-109973666D02*
X121072333Y-109740332D01*
X121072333Y-109506999D02*
X120372333Y-109506999D01*
X120372333Y-109506999D02*
X121072333Y-109106999D01*
X121072333Y-109106999D02*
X120372333Y-109106999D01*
X121072333Y-108773666D02*
X120372333Y-108773666D01*
X120705666Y-108773666D02*
X120705666Y-108373666D01*
X121072333Y-108373666D02*
X120372333Y-108373666D01*
X121305666Y-107873666D02*
X120305666Y-107873666D01*
X121072333Y-107373666D02*
X120372333Y-107373666D01*
X121072333Y-107040333D02*
X120372333Y-107040333D01*
X120372333Y-107040333D02*
X121072333Y-106640333D01*
X121072333Y-106640333D02*
X120372333Y-106640333D01*
X121072333Y-105940333D02*
X121072333Y-106340333D01*
X121072333Y-106140333D02*
X120372333Y-106140333D01*
X120372333Y-106140333D02*
X120472333Y-106207000D01*
X120472333Y-106207000D02*
X120539000Y-106273667D01*
X120539000Y-106273667D02*
X120572333Y-106340333D01*
X121305666Y-105473666D02*
X120305666Y-105473666D01*
X121072333Y-104973666D02*
X120372333Y-104973666D01*
X121072333Y-104640333D02*
X120372333Y-104640333D01*
X120372333Y-104640333D02*
X121072333Y-104240333D01*
X121072333Y-104240333D02*
X120372333Y-104240333D01*
X120372333Y-103773667D02*
X120372333Y-103707000D01*
X120372333Y-103707000D02*
X120405666Y-103640333D01*
X120405666Y-103640333D02*
X120439000Y-103607000D01*
X120439000Y-103607000D02*
X120505666Y-103573667D01*
X120505666Y-103573667D02*
X120639000Y-103540333D01*
X120639000Y-103540333D02*
X120805666Y-103540333D01*
X120805666Y-103540333D02*
X120939000Y-103573667D01*
X120939000Y-103573667D02*
X121005666Y-103607000D01*
X121005666Y-103607000D02*
X121039000Y-103640333D01*
X121039000Y-103640333D02*
X121072333Y-103707000D01*
X121072333Y-103707000D02*
X121072333Y-103773667D01*
X121072333Y-103773667D02*
X121039000Y-103840333D01*
X121039000Y-103840333D02*
X121005666Y-103873667D01*
X121005666Y-103873667D02*
X120939000Y-103907000D01*
X120939000Y-103907000D02*
X120805666Y-103940333D01*
X120805666Y-103940333D02*
X120639000Y-103940333D01*
X120639000Y-103940333D02*
X120505666Y-103907000D01*
X120505666Y-103907000D02*
X120439000Y-103873667D01*
X120439000Y-103873667D02*
X120405666Y-103840333D01*
X120405666Y-103840333D02*
X120372333Y-103773667D01*
X121305666Y-103073666D02*
X120305666Y-103073666D01*
X121072333Y-102573666D02*
X120372333Y-102573666D01*
X121072333Y-102240333D02*
X120372333Y-102240333D01*
X120372333Y-102240333D02*
X121072333Y-101840333D01*
X121072333Y-101840333D02*
X120372333Y-101840333D01*
X120372333Y-101607000D02*
X120372333Y-101207000D01*
X121072333Y-101407000D02*
X120372333Y-101407000D01*
X121305666Y-100807000D02*
X120305666Y-100807000D01*
X121005666Y-99907000D02*
X121039000Y-99940333D01*
X121039000Y-99940333D02*
X121072333Y-100040333D01*
X121072333Y-100040333D02*
X121072333Y-100107000D01*
X121072333Y-100107000D02*
X121039000Y-100207000D01*
X121039000Y-100207000D02*
X120972333Y-100273667D01*
X120972333Y-100273667D02*
X120905666Y-100307000D01*
X120905666Y-100307000D02*
X120772333Y-100340333D01*
X120772333Y-100340333D02*
X120672333Y-100340333D01*
X120672333Y-100340333D02*
X120539000Y-100307000D01*
X120539000Y-100307000D02*
X120472333Y-100273667D01*
X120472333Y-100273667D02*
X120405666Y-100207000D01*
X120405666Y-100207000D02*
X120372333Y-100107000D01*
X120372333Y-100107000D02*
X120372333Y-100040333D01*
X120372333Y-100040333D02*
X120405666Y-99940333D01*
X120405666Y-99940333D02*
X120439000Y-99907000D01*
X121072333Y-99273667D02*
X121072333Y-99607000D01*
X121072333Y-99607000D02*
X120372333Y-99607000D01*
X121072333Y-99040333D02*
X120372333Y-99040333D01*
X121072333Y-98640333D02*
X120672333Y-98940333D01*
X120372333Y-98640333D02*
X120772333Y-99040333D01*
X101609666Y-118719666D02*
X101576333Y-118786333D01*
X101576333Y-118786333D02*
X101576333Y-118886333D01*
X101576333Y-118886333D02*
X101609666Y-118986333D01*
X101609666Y-118986333D02*
X101676333Y-119053000D01*
X101676333Y-119053000D02*
X101743000Y-119086333D01*
X101743000Y-119086333D02*
X101876333Y-119119666D01*
X101876333Y-119119666D02*
X101976333Y-119119666D01*
X101976333Y-119119666D02*
X102109666Y-119086333D01*
X102109666Y-119086333D02*
X102176333Y-119053000D01*
X102176333Y-119053000D02*
X102243000Y-118986333D01*
X102243000Y-118986333D02*
X102276333Y-118886333D01*
X102276333Y-118886333D02*
X102276333Y-118819666D01*
X102276333Y-118819666D02*
X102243000Y-118719666D01*
X102243000Y-118719666D02*
X102209666Y-118686333D01*
X102209666Y-118686333D02*
X101976333Y-118686333D01*
X101976333Y-118686333D02*
X101976333Y-118819666D01*
X102276333Y-118386333D02*
X101576333Y-118386333D01*
X101576333Y-118386333D02*
X102276333Y-117986333D01*
X102276333Y-117986333D02*
X101576333Y-117986333D01*
X102276333Y-117653000D02*
X101576333Y-117653000D01*
X101576333Y-117653000D02*
X101576333Y-117486333D01*
X101576333Y-117486333D02*
X101609666Y-117386333D01*
X101609666Y-117386333D02*
X101676333Y-117319667D01*
X101676333Y-117319667D02*
X101743000Y-117286333D01*
X101743000Y-117286333D02*
X101876333Y-117253000D01*
X101876333Y-117253000D02*
X101976333Y-117253000D01*
X101976333Y-117253000D02*
X102109666Y-117286333D01*
X102109666Y-117286333D02*
X102176333Y-117319667D01*
X102176333Y-117319667D02*
X102243000Y-117386333D01*
X102243000Y-117386333D02*
X102276333Y-117486333D01*
X102276333Y-117486333D02*
X102276333Y-117653000D01*
X102509666Y-116786333D02*
X101509666Y-116786333D01*
X101576333Y-116353000D02*
X101576333Y-115919666D01*
X101576333Y-115919666D02*
X101843000Y-116153000D01*
X101843000Y-116153000D02*
X101843000Y-116053000D01*
X101843000Y-116053000D02*
X101876333Y-115986333D01*
X101876333Y-115986333D02*
X101909666Y-115953000D01*
X101909666Y-115953000D02*
X101976333Y-115919666D01*
X101976333Y-115919666D02*
X102143000Y-115919666D01*
X102143000Y-115919666D02*
X102209666Y-115953000D01*
X102209666Y-115953000D02*
X102243000Y-115986333D01*
X102243000Y-115986333D02*
X102276333Y-116053000D01*
X102276333Y-116053000D02*
X102276333Y-116253000D01*
X102276333Y-116253000D02*
X102243000Y-116319666D01*
X102243000Y-116319666D02*
X102209666Y-116353000D01*
X101576333Y-115719666D02*
X102276333Y-115486333D01*
X102276333Y-115486333D02*
X101576333Y-115252999D01*
X101576333Y-115086333D02*
X101576333Y-114652999D01*
X101576333Y-114652999D02*
X101843000Y-114886333D01*
X101843000Y-114886333D02*
X101843000Y-114786333D01*
X101843000Y-114786333D02*
X101876333Y-114719666D01*
X101876333Y-114719666D02*
X101909666Y-114686333D01*
X101909666Y-114686333D02*
X101976333Y-114652999D01*
X101976333Y-114652999D02*
X102143000Y-114652999D01*
X102143000Y-114652999D02*
X102209666Y-114686333D01*
X102209666Y-114686333D02*
X102243000Y-114719666D01*
X102243000Y-114719666D02*
X102276333Y-114786333D01*
X102276333Y-114786333D02*
X102276333Y-114986333D01*
X102276333Y-114986333D02*
X102243000Y-115052999D01*
X102243000Y-115052999D02*
X102209666Y-115086333D01*
X102509666Y-114186332D02*
X101509666Y-114186332D01*
X102243000Y-113719665D02*
X102276333Y-113619665D01*
X102276333Y-113619665D02*
X102276333Y-113452999D01*
X102276333Y-113452999D02*
X102243000Y-113386332D01*
X102243000Y-113386332D02*
X102209666Y-113352999D01*
X102209666Y-113352999D02*
X102143000Y-113319665D01*
X102143000Y-113319665D02*
X102076333Y-113319665D01*
X102076333Y-113319665D02*
X102009666Y-113352999D01*
X102009666Y-113352999D02*
X101976333Y-113386332D01*
X101976333Y-113386332D02*
X101943000Y-113452999D01*
X101943000Y-113452999D02*
X101909666Y-113586332D01*
X101909666Y-113586332D02*
X101876333Y-113652999D01*
X101876333Y-113652999D02*
X101843000Y-113686332D01*
X101843000Y-113686332D02*
X101776333Y-113719665D01*
X101776333Y-113719665D02*
X101709666Y-113719665D01*
X101709666Y-113719665D02*
X101643000Y-113686332D01*
X101643000Y-113686332D02*
X101609666Y-113652999D01*
X101609666Y-113652999D02*
X101576333Y-113586332D01*
X101576333Y-113586332D02*
X101576333Y-113419665D01*
X101576333Y-113419665D02*
X101609666Y-113319665D01*
X102276333Y-113019665D02*
X101576333Y-113019665D01*
X101576333Y-113019665D02*
X101576333Y-112852998D01*
X101576333Y-112852998D02*
X101609666Y-112752998D01*
X101609666Y-112752998D02*
X101676333Y-112686332D01*
X101676333Y-112686332D02*
X101743000Y-112652998D01*
X101743000Y-112652998D02*
X101876333Y-112619665D01*
X101876333Y-112619665D02*
X101976333Y-112619665D01*
X101976333Y-112619665D02*
X102109666Y-112652998D01*
X102109666Y-112652998D02*
X102176333Y-112686332D01*
X102176333Y-112686332D02*
X102243000Y-112752998D01*
X102243000Y-112752998D02*
X102276333Y-112852998D01*
X102276333Y-112852998D02*
X102276333Y-113019665D01*
X102276333Y-112319665D02*
X101576333Y-112319665D01*
X102509666Y-111819665D02*
X101509666Y-111819665D01*
X102243000Y-111352998D02*
X102276333Y-111252998D01*
X102276333Y-111252998D02*
X102276333Y-111086332D01*
X102276333Y-111086332D02*
X102243000Y-111019665D01*
X102243000Y-111019665D02*
X102209666Y-110986332D01*
X102209666Y-110986332D02*
X102143000Y-110952998D01*
X102143000Y-110952998D02*
X102076333Y-110952998D01*
X102076333Y-110952998D02*
X102009666Y-110986332D01*
X102009666Y-110986332D02*
X101976333Y-111019665D01*
X101976333Y-111019665D02*
X101943000Y-111086332D01*
X101943000Y-111086332D02*
X101909666Y-111219665D01*
X101909666Y-111219665D02*
X101876333Y-111286332D01*
X101876333Y-111286332D02*
X101843000Y-111319665D01*
X101843000Y-111319665D02*
X101776333Y-111352998D01*
X101776333Y-111352998D02*
X101709666Y-111352998D01*
X101709666Y-111352998D02*
X101643000Y-111319665D01*
X101643000Y-111319665D02*
X101609666Y-111286332D01*
X101609666Y-111286332D02*
X101576333Y-111219665D01*
X101576333Y-111219665D02*
X101576333Y-111052998D01*
X101576333Y-111052998D02*
X101609666Y-110952998D01*
X102276333Y-110652998D02*
X101576333Y-110652998D01*
X101576333Y-110652998D02*
X101576333Y-110486331D01*
X101576333Y-110486331D02*
X101609666Y-110386331D01*
X101609666Y-110386331D02*
X101676333Y-110319665D01*
X101676333Y-110319665D02*
X101743000Y-110286331D01*
X101743000Y-110286331D02*
X101876333Y-110252998D01*
X101876333Y-110252998D02*
X101976333Y-110252998D01*
X101976333Y-110252998D02*
X102109666Y-110286331D01*
X102109666Y-110286331D02*
X102176333Y-110319665D01*
X102176333Y-110319665D02*
X102243000Y-110386331D01*
X102243000Y-110386331D02*
X102276333Y-110486331D01*
X102276333Y-110486331D02*
X102276333Y-110652998D01*
X101576333Y-109819665D02*
X101576333Y-109686331D01*
X101576333Y-109686331D02*
X101609666Y-109619665D01*
X101609666Y-109619665D02*
X101676333Y-109552998D01*
X101676333Y-109552998D02*
X101809666Y-109519665D01*
X101809666Y-109519665D02*
X102043000Y-109519665D01*
X102043000Y-109519665D02*
X102176333Y-109552998D01*
X102176333Y-109552998D02*
X102243000Y-109619665D01*
X102243000Y-109619665D02*
X102276333Y-109686331D01*
X102276333Y-109686331D02*
X102276333Y-109819665D01*
X102276333Y-109819665D02*
X102243000Y-109886331D01*
X102243000Y-109886331D02*
X102176333Y-109952998D01*
X102176333Y-109952998D02*
X102043000Y-109986331D01*
X102043000Y-109986331D02*
X101809666Y-109986331D01*
X101809666Y-109986331D02*
X101676333Y-109952998D01*
X101676333Y-109952998D02*
X101609666Y-109886331D01*
X101609666Y-109886331D02*
X101576333Y-109819665D01*
X102509666Y-109052998D02*
X101509666Y-109052998D01*
X102243000Y-108586331D02*
X102276333Y-108486331D01*
X102276333Y-108486331D02*
X102276333Y-108319665D01*
X102276333Y-108319665D02*
X102243000Y-108252998D01*
X102243000Y-108252998D02*
X102209666Y-108219665D01*
X102209666Y-108219665D02*
X102143000Y-108186331D01*
X102143000Y-108186331D02*
X102076333Y-108186331D01*
X102076333Y-108186331D02*
X102009666Y-108219665D01*
X102009666Y-108219665D02*
X101976333Y-108252998D01*
X101976333Y-108252998D02*
X101943000Y-108319665D01*
X101943000Y-108319665D02*
X101909666Y-108452998D01*
X101909666Y-108452998D02*
X101876333Y-108519665D01*
X101876333Y-108519665D02*
X101843000Y-108552998D01*
X101843000Y-108552998D02*
X101776333Y-108586331D01*
X101776333Y-108586331D02*
X101709666Y-108586331D01*
X101709666Y-108586331D02*
X101643000Y-108552998D01*
X101643000Y-108552998D02*
X101609666Y-108519665D01*
X101609666Y-108519665D02*
X101576333Y-108452998D01*
X101576333Y-108452998D02*
X101576333Y-108286331D01*
X101576333Y-108286331D02*
X101609666Y-108186331D01*
X102209666Y-107486331D02*
X102243000Y-107519664D01*
X102243000Y-107519664D02*
X102276333Y-107619664D01*
X102276333Y-107619664D02*
X102276333Y-107686331D01*
X102276333Y-107686331D02*
X102243000Y-107786331D01*
X102243000Y-107786331D02*
X102176333Y-107852998D01*
X102176333Y-107852998D02*
X102109666Y-107886331D01*
X102109666Y-107886331D02*
X101976333Y-107919664D01*
X101976333Y-107919664D02*
X101876333Y-107919664D01*
X101876333Y-107919664D02*
X101743000Y-107886331D01*
X101743000Y-107886331D02*
X101676333Y-107852998D01*
X101676333Y-107852998D02*
X101609666Y-107786331D01*
X101609666Y-107786331D02*
X101576333Y-107686331D01*
X101576333Y-107686331D02*
X101576333Y-107619664D01*
X101576333Y-107619664D02*
X101609666Y-107519664D01*
X101609666Y-107519664D02*
X101643000Y-107486331D01*
X102276333Y-107186331D02*
X101576333Y-107186331D01*
X102276333Y-106786331D02*
X101876333Y-107086331D01*
X101576333Y-106786331D02*
X101976333Y-107186331D01*
X102509666Y-106319664D02*
X101509666Y-106319664D01*
X102209666Y-105419664D02*
X102243000Y-105452997D01*
X102243000Y-105452997D02*
X102276333Y-105552997D01*
X102276333Y-105552997D02*
X102276333Y-105619664D01*
X102276333Y-105619664D02*
X102243000Y-105719664D01*
X102243000Y-105719664D02*
X102176333Y-105786331D01*
X102176333Y-105786331D02*
X102109666Y-105819664D01*
X102109666Y-105819664D02*
X101976333Y-105852997D01*
X101976333Y-105852997D02*
X101876333Y-105852997D01*
X101876333Y-105852997D02*
X101743000Y-105819664D01*
X101743000Y-105819664D02*
X101676333Y-105786331D01*
X101676333Y-105786331D02*
X101609666Y-105719664D01*
X101609666Y-105719664D02*
X101576333Y-105619664D01*
X101576333Y-105619664D02*
X101576333Y-105552997D01*
X101576333Y-105552997D02*
X101609666Y-105452997D01*
X101609666Y-105452997D02*
X101643000Y-105419664D01*
X102243000Y-105152997D02*
X102276333Y-105052997D01*
X102276333Y-105052997D02*
X102276333Y-104886331D01*
X102276333Y-104886331D02*
X102243000Y-104819664D01*
X102243000Y-104819664D02*
X102209666Y-104786331D01*
X102209666Y-104786331D02*
X102143000Y-104752997D01*
X102143000Y-104752997D02*
X102076333Y-104752997D01*
X102076333Y-104752997D02*
X102009666Y-104786331D01*
X102009666Y-104786331D02*
X101976333Y-104819664D01*
X101976333Y-104819664D02*
X101943000Y-104886331D01*
X101943000Y-104886331D02*
X101909666Y-105019664D01*
X101909666Y-105019664D02*
X101876333Y-105086331D01*
X101876333Y-105086331D02*
X101843000Y-105119664D01*
X101843000Y-105119664D02*
X101776333Y-105152997D01*
X101776333Y-105152997D02*
X101709666Y-105152997D01*
X101709666Y-105152997D02*
X101643000Y-105119664D01*
X101643000Y-105119664D02*
X101609666Y-105086331D01*
X101609666Y-105086331D02*
X101576333Y-105019664D01*
X101576333Y-105019664D02*
X101576333Y-104852997D01*
X101576333Y-104852997D02*
X101609666Y-104752997D01*
X102509666Y-103752997D02*
X101509666Y-103752997D01*
X102276333Y-103252997D02*
X101576333Y-103252997D01*
X101576333Y-103252997D02*
X102276333Y-102852997D01*
X102276333Y-102852997D02*
X101576333Y-102852997D01*
X102209666Y-102119664D02*
X102243000Y-102152997D01*
X102243000Y-102152997D02*
X102276333Y-102252997D01*
X102276333Y-102252997D02*
X102276333Y-102319664D01*
X102276333Y-102319664D02*
X102243000Y-102419664D01*
X102243000Y-102419664D02*
X102176333Y-102486331D01*
X102176333Y-102486331D02*
X102109666Y-102519664D01*
X102109666Y-102519664D02*
X101976333Y-102552997D01*
X101976333Y-102552997D02*
X101876333Y-102552997D01*
X101876333Y-102552997D02*
X101743000Y-102519664D01*
X101743000Y-102519664D02*
X101676333Y-102486331D01*
X101676333Y-102486331D02*
X101609666Y-102419664D01*
X101609666Y-102419664D02*
X101576333Y-102319664D01*
X101576333Y-102319664D02*
X101576333Y-102252997D01*
X101576333Y-102252997D02*
X101609666Y-102152997D01*
X101609666Y-102152997D02*
X101643000Y-102119664D01*
X102509666Y-101119664D02*
X101509666Y-101119664D01*
X102243000Y-100652997D02*
X102276333Y-100552997D01*
X102276333Y-100552997D02*
X102276333Y-100386331D01*
X102276333Y-100386331D02*
X102243000Y-100319664D01*
X102243000Y-100319664D02*
X102209666Y-100286331D01*
X102209666Y-100286331D02*
X102143000Y-100252997D01*
X102143000Y-100252997D02*
X102076333Y-100252997D01*
X102076333Y-100252997D02*
X102009666Y-100286331D01*
X102009666Y-100286331D02*
X101976333Y-100319664D01*
X101976333Y-100319664D02*
X101943000Y-100386331D01*
X101943000Y-100386331D02*
X101909666Y-100519664D01*
X101909666Y-100519664D02*
X101876333Y-100586331D01*
X101876333Y-100586331D02*
X101843000Y-100619664D01*
X101843000Y-100619664D02*
X101776333Y-100652997D01*
X101776333Y-100652997D02*
X101709666Y-100652997D01*
X101709666Y-100652997D02*
X101643000Y-100619664D01*
X101643000Y-100619664D02*
X101609666Y-100586331D01*
X101609666Y-100586331D02*
X101576333Y-100519664D01*
X101576333Y-100519664D02*
X101576333Y-100352997D01*
X101576333Y-100352997D02*
X101609666Y-100252997D01*
X101576333Y-100052997D02*
X101576333Y-99652997D01*
X102276333Y-99852997D02*
X101576333Y-99852997D01*
X101909666Y-99186331D02*
X101943000Y-99086331D01*
X101943000Y-99086331D02*
X101976333Y-99052997D01*
X101976333Y-99052997D02*
X102043000Y-99019664D01*
X102043000Y-99019664D02*
X102143000Y-99019664D01*
X102143000Y-99019664D02*
X102209666Y-99052997D01*
X102209666Y-99052997D02*
X102243000Y-99086331D01*
X102243000Y-99086331D02*
X102276333Y-99152997D01*
X102276333Y-99152997D02*
X102276333Y-99419664D01*
X102276333Y-99419664D02*
X101576333Y-99419664D01*
X101576333Y-99419664D02*
X101576333Y-99186331D01*
X101576333Y-99186331D02*
X101609666Y-99119664D01*
X101609666Y-99119664D02*
X101643000Y-99086331D01*
X101643000Y-99086331D02*
X101709666Y-99052997D01*
X101709666Y-99052997D02*
X101776333Y-99052997D01*
X101776333Y-99052997D02*
X101843000Y-99086331D01*
X101843000Y-99086331D02*
X101876333Y-99119664D01*
X101876333Y-99119664D02*
X101909666Y-99186331D01*
X101909666Y-99186331D02*
X101909666Y-99419664D01*
X101943000Y-98586331D02*
X102276333Y-98586331D01*
X101576333Y-98819664D02*
X101943000Y-98586331D01*
X101943000Y-98586331D02*
X101576333Y-98352997D01*
D11*
X103592333Y-112984619D02*
X103259000Y-112508428D01*
X103020905Y-112984619D02*
X103020905Y-111984619D01*
X103020905Y-111984619D02*
X103401857Y-111984619D01*
X103401857Y-111984619D02*
X103497095Y-112032238D01*
X103497095Y-112032238D02*
X103544714Y-112079857D01*
X103544714Y-112079857D02*
X103592333Y-112175095D01*
X103592333Y-112175095D02*
X103592333Y-112317952D01*
X103592333Y-112317952D02*
X103544714Y-112413190D01*
X103544714Y-112413190D02*
X103497095Y-112460809D01*
X103497095Y-112460809D02*
X103401857Y-112508428D01*
X103401857Y-112508428D02*
X103020905Y-112508428D01*
X104544714Y-112984619D02*
X103973286Y-112984619D01*
X104259000Y-112984619D02*
X104259000Y-111984619D01*
X104259000Y-111984619D02*
X104163762Y-112127476D01*
X104163762Y-112127476D02*
X104068524Y-112222714D01*
X104068524Y-112222714D02*
X103973286Y-112270333D01*
X104925905Y-111714619D02*
X104925905Y-110714619D01*
X104925905Y-110714619D02*
X105164000Y-110714619D01*
X105164000Y-110714619D02*
X105306857Y-110762238D01*
X105306857Y-110762238D02*
X105402095Y-110857476D01*
X105402095Y-110857476D02*
X105449714Y-110952714D01*
X105449714Y-110952714D02*
X105497333Y-111143190D01*
X105497333Y-111143190D02*
X105497333Y-111286047D01*
X105497333Y-111286047D02*
X105449714Y-111476523D01*
X105449714Y-111476523D02*
X105402095Y-111571761D01*
X105402095Y-111571761D02*
X105306857Y-111667000D01*
X105306857Y-111667000D02*
X105164000Y-111714619D01*
X105164000Y-111714619D02*
X104925905Y-111714619D01*
X105878286Y-110809857D02*
X105925905Y-110762238D01*
X105925905Y-110762238D02*
X106021143Y-110714619D01*
X106021143Y-110714619D02*
X106259238Y-110714619D01*
X106259238Y-110714619D02*
X106354476Y-110762238D01*
X106354476Y-110762238D02*
X106402095Y-110809857D01*
X106402095Y-110809857D02*
X106449714Y-110905095D01*
X106449714Y-110905095D02*
X106449714Y-111000333D01*
X106449714Y-111000333D02*
X106402095Y-111143190D01*
X106402095Y-111143190D02*
X105830667Y-111714619D01*
X105830667Y-111714619D02*
X106449714Y-111714619D01*
X105370333Y-112984619D02*
X105037000Y-112508428D01*
X104798905Y-112984619D02*
X104798905Y-111984619D01*
X104798905Y-111984619D02*
X105179857Y-111984619D01*
X105179857Y-111984619D02*
X105275095Y-112032238D01*
X105275095Y-112032238D02*
X105322714Y-112079857D01*
X105322714Y-112079857D02*
X105370333Y-112175095D01*
X105370333Y-112175095D02*
X105370333Y-112317952D01*
X105370333Y-112317952D02*
X105322714Y-112413190D01*
X105322714Y-112413190D02*
X105275095Y-112460809D01*
X105275095Y-112460809D02*
X105179857Y-112508428D01*
X105179857Y-112508428D02*
X104798905Y-112508428D01*
X105703667Y-111984619D02*
X106322714Y-111984619D01*
X106322714Y-111984619D02*
X105989381Y-112365571D01*
X105989381Y-112365571D02*
X106132238Y-112365571D01*
X106132238Y-112365571D02*
X106227476Y-112413190D01*
X106227476Y-112413190D02*
X106275095Y-112460809D01*
X106275095Y-112460809D02*
X106322714Y-112556047D01*
X106322714Y-112556047D02*
X106322714Y-112794142D01*
X106322714Y-112794142D02*
X106275095Y-112889380D01*
X106275095Y-112889380D02*
X106227476Y-112937000D01*
X106227476Y-112937000D02*
X106132238Y-112984619D01*
X106132238Y-112984619D02*
X105846524Y-112984619D01*
X105846524Y-112984619D02*
X105751286Y-112937000D01*
X105751286Y-112937000D02*
X105703667Y-112889380D01*
X103592333Y-111714619D02*
X103259000Y-111238428D01*
X103020905Y-111714619D02*
X103020905Y-110714619D01*
X103020905Y-110714619D02*
X103401857Y-110714619D01*
X103401857Y-110714619D02*
X103497095Y-110762238D01*
X103497095Y-110762238D02*
X103544714Y-110809857D01*
X103544714Y-110809857D02*
X103592333Y-110905095D01*
X103592333Y-110905095D02*
X103592333Y-111047952D01*
X103592333Y-111047952D02*
X103544714Y-111143190D01*
X103544714Y-111143190D02*
X103497095Y-111190809D01*
X103497095Y-111190809D02*
X103401857Y-111238428D01*
X103401857Y-111238428D02*
X103020905Y-111238428D01*
X103973286Y-110809857D02*
X104020905Y-110762238D01*
X104020905Y-110762238D02*
X104116143Y-110714619D01*
X104116143Y-110714619D02*
X104354238Y-110714619D01*
X104354238Y-110714619D02*
X104449476Y-110762238D01*
X104449476Y-110762238D02*
X104497095Y-110809857D01*
X104497095Y-110809857D02*
X104544714Y-110905095D01*
X104544714Y-110905095D02*
X104544714Y-111000333D01*
X104544714Y-111000333D02*
X104497095Y-111143190D01*
X104497095Y-111143190D02*
X103925667Y-111714619D01*
X103925667Y-111714619D02*
X104544714Y-111714619D01*
X118197333Y-113270380D02*
X118149714Y-113318000D01*
X118149714Y-113318000D02*
X118006857Y-113365619D01*
X118006857Y-113365619D02*
X117911619Y-113365619D01*
X117911619Y-113365619D02*
X117768762Y-113318000D01*
X117768762Y-113318000D02*
X117673524Y-113222761D01*
X117673524Y-113222761D02*
X117625905Y-113127523D01*
X117625905Y-113127523D02*
X117578286Y-112937047D01*
X117578286Y-112937047D02*
X117578286Y-112794190D01*
X117578286Y-112794190D02*
X117625905Y-112603714D01*
X117625905Y-112603714D02*
X117673524Y-112508476D01*
X117673524Y-112508476D02*
X117768762Y-112413238D01*
X117768762Y-112413238D02*
X117911619Y-112365619D01*
X117911619Y-112365619D02*
X118006857Y-112365619D01*
X118006857Y-112365619D02*
X118149714Y-112413238D01*
X118149714Y-112413238D02*
X118197333Y-112460857D01*
X119102095Y-112365619D02*
X118625905Y-112365619D01*
X118625905Y-112365619D02*
X118578286Y-112841809D01*
X118578286Y-112841809D02*
X118625905Y-112794190D01*
X118625905Y-112794190D02*
X118721143Y-112746571D01*
X118721143Y-112746571D02*
X118959238Y-112746571D01*
X118959238Y-112746571D02*
X119054476Y-112794190D01*
X119054476Y-112794190D02*
X119102095Y-112841809D01*
X119102095Y-112841809D02*
X119149714Y-112937047D01*
X119149714Y-112937047D02*
X119149714Y-113175142D01*
X119149714Y-113175142D02*
X119102095Y-113270380D01*
X119102095Y-113270380D02*
X119054476Y-113318000D01*
X119054476Y-113318000D02*
X118959238Y-113365619D01*
X118959238Y-113365619D02*
X118721143Y-113365619D01*
X118721143Y-113365619D02*
X118625905Y-113318000D01*
X118625905Y-113318000D02*
X118578286Y-113270380D01*
X118197333Y-114540380D02*
X118149714Y-114588000D01*
X118149714Y-114588000D02*
X118006857Y-114635619D01*
X118006857Y-114635619D02*
X117911619Y-114635619D01*
X117911619Y-114635619D02*
X117768762Y-114588000D01*
X117768762Y-114588000D02*
X117673524Y-114492761D01*
X117673524Y-114492761D02*
X117625905Y-114397523D01*
X117625905Y-114397523D02*
X117578286Y-114207047D01*
X117578286Y-114207047D02*
X117578286Y-114064190D01*
X117578286Y-114064190D02*
X117625905Y-113873714D01*
X117625905Y-113873714D02*
X117673524Y-113778476D01*
X117673524Y-113778476D02*
X117768762Y-113683238D01*
X117768762Y-113683238D02*
X117911619Y-113635619D01*
X117911619Y-113635619D02*
X118006857Y-113635619D01*
X118006857Y-113635619D02*
X118149714Y-113683238D01*
X118149714Y-113683238D02*
X118197333Y-113730857D01*
X119054476Y-113968952D02*
X119054476Y-114635619D01*
X118816381Y-113588000D02*
X118578286Y-114302285D01*
X118578286Y-114302285D02*
X119197333Y-114302285D01*
X117816333Y-105269380D02*
X117768714Y-105317000D01*
X117768714Y-105317000D02*
X117625857Y-105364619D01*
X117625857Y-105364619D02*
X117530619Y-105364619D01*
X117530619Y-105364619D02*
X117387762Y-105317000D01*
X117387762Y-105317000D02*
X117292524Y-105221761D01*
X117292524Y-105221761D02*
X117244905Y-105126523D01*
X117244905Y-105126523D02*
X117197286Y-104936047D01*
X117197286Y-104936047D02*
X117197286Y-104793190D01*
X117197286Y-104793190D02*
X117244905Y-104602714D01*
X117244905Y-104602714D02*
X117292524Y-104507476D01*
X117292524Y-104507476D02*
X117387762Y-104412238D01*
X117387762Y-104412238D02*
X117530619Y-104364619D01*
X117530619Y-104364619D02*
X117625857Y-104364619D01*
X117625857Y-104364619D02*
X117768714Y-104412238D01*
X117768714Y-104412238D02*
X117816333Y-104459857D01*
X118197286Y-104459857D02*
X118244905Y-104412238D01*
X118244905Y-104412238D02*
X118340143Y-104364619D01*
X118340143Y-104364619D02*
X118578238Y-104364619D01*
X118578238Y-104364619D02*
X118673476Y-104412238D01*
X118673476Y-104412238D02*
X118721095Y-104459857D01*
X118721095Y-104459857D02*
X118768714Y-104555095D01*
X118768714Y-104555095D02*
X118768714Y-104650333D01*
X118768714Y-104650333D02*
X118721095Y-104793190D01*
X118721095Y-104793190D02*
X118149667Y-105364619D01*
X118149667Y-105364619D02*
X118768714Y-105364619D01*
X104756833Y-107965380D02*
X104709214Y-108013000D01*
X104709214Y-108013000D02*
X104566357Y-108060619D01*
X104566357Y-108060619D02*
X104471119Y-108060619D01*
X104471119Y-108060619D02*
X104328262Y-108013000D01*
X104328262Y-108013000D02*
X104233024Y-107917761D01*
X104233024Y-107917761D02*
X104185405Y-107822523D01*
X104185405Y-107822523D02*
X104137786Y-107632047D01*
X104137786Y-107632047D02*
X104137786Y-107489190D01*
X104137786Y-107489190D02*
X104185405Y-107298714D01*
X104185405Y-107298714D02*
X104233024Y-107203476D01*
X104233024Y-107203476D02*
X104328262Y-107108238D01*
X104328262Y-107108238D02*
X104471119Y-107060619D01*
X104471119Y-107060619D02*
X104566357Y-107060619D01*
X104566357Y-107060619D02*
X104709214Y-107108238D01*
X104709214Y-107108238D02*
X104756833Y-107155857D01*
X105709214Y-108060619D02*
X105137786Y-108060619D01*
X105423500Y-108060619D02*
X105423500Y-107060619D01*
X105423500Y-107060619D02*
X105328262Y-107203476D01*
X105328262Y-107203476D02*
X105233024Y-107298714D01*
X105233024Y-107298714D02*
X105137786Y-107346333D01*
X122526666Y-97132619D02*
X122526666Y-97846904D01*
X122526666Y-97846904D02*
X122479047Y-97989761D01*
X122479047Y-97989761D02*
X122383809Y-98085000D01*
X122383809Y-98085000D02*
X122240952Y-98132619D01*
X122240952Y-98132619D02*
X122145714Y-98132619D01*
X122907619Y-97132619D02*
X123526666Y-97132619D01*
X123526666Y-97132619D02*
X123193333Y-97513571D01*
X123193333Y-97513571D02*
X123336190Y-97513571D01*
X123336190Y-97513571D02*
X123431428Y-97561190D01*
X123431428Y-97561190D02*
X123479047Y-97608809D01*
X123479047Y-97608809D02*
X123526666Y-97704047D01*
X123526666Y-97704047D02*
X123526666Y-97942142D01*
X123526666Y-97942142D02*
X123479047Y-98037380D01*
X123479047Y-98037380D02*
X123431428Y-98085000D01*
X123431428Y-98085000D02*
X123336190Y-98132619D01*
X123336190Y-98132619D02*
X123050476Y-98132619D01*
X123050476Y-98132619D02*
X122955238Y-98085000D01*
X122955238Y-98085000D02*
X122907619Y-98037380D01*
X99666666Y-97132619D02*
X99666666Y-97846904D01*
X99666666Y-97846904D02*
X99619047Y-97989761D01*
X99619047Y-97989761D02*
X99523809Y-98085000D01*
X99523809Y-98085000D02*
X99380952Y-98132619D01*
X99380952Y-98132619D02*
X99285714Y-98132619D01*
X100095238Y-97227857D02*
X100142857Y-97180238D01*
X100142857Y-97180238D02*
X100238095Y-97132619D01*
X100238095Y-97132619D02*
X100476190Y-97132619D01*
X100476190Y-97132619D02*
X100571428Y-97180238D01*
X100571428Y-97180238D02*
X100619047Y-97227857D01*
X100619047Y-97227857D02*
X100666666Y-97323095D01*
X100666666Y-97323095D02*
X100666666Y-97418333D01*
X100666666Y-97418333D02*
X100619047Y-97561190D01*
X100619047Y-97561190D02*
X100047619Y-98132619D01*
X100047619Y-98132619D02*
X100666666Y-98132619D01*
X112553809Y-114122428D02*
X112553809Y-114598619D01*
X112220476Y-113598619D02*
X112553809Y-114122428D01*
X112553809Y-114122428D02*
X112887142Y-113598619D01*
X113744285Y-114598619D02*
X113172857Y-114598619D01*
X113458571Y-114598619D02*
X113458571Y-113598619D01*
X113458571Y-113598619D02*
X113363333Y-113741476D01*
X113363333Y-113741476D02*
X113268095Y-113836714D01*
X113268095Y-113836714D02*
X113172857Y-113884333D01*
X120112619Y-96853333D02*
X120826904Y-96853333D01*
X120826904Y-96853333D02*
X120969761Y-96900952D01*
X120969761Y-96900952D02*
X121065000Y-96996190D01*
X121065000Y-96996190D02*
X121112619Y-97139047D01*
X121112619Y-97139047D02*
X121112619Y-97234285D01*
X121112619Y-95853333D02*
X121112619Y-96424761D01*
X121112619Y-96139047D02*
X120112619Y-96139047D01*
X120112619Y-96139047D02*
X120255476Y-96234285D01*
X120255476Y-96234285D02*
X120350714Y-96329523D01*
X120350714Y-96329523D02*
X120398333Y-96424761D01*
X105537095Y-102967619D02*
X105537095Y-103777142D01*
X105537095Y-103777142D02*
X105584714Y-103872380D01*
X105584714Y-103872380D02*
X105632333Y-103920000D01*
X105632333Y-103920000D02*
X105727571Y-103967619D01*
X105727571Y-103967619D02*
X105918047Y-103967619D01*
X105918047Y-103967619D02*
X106013285Y-103920000D01*
X106013285Y-103920000D02*
X106060904Y-103872380D01*
X106060904Y-103872380D02*
X106108523Y-103777142D01*
X106108523Y-103777142D02*
X106108523Y-102967619D01*
X106537095Y-103062857D02*
X106584714Y-103015238D01*
X106584714Y-103015238D02*
X106679952Y-102967619D01*
X106679952Y-102967619D02*
X106918047Y-102967619D01*
X106918047Y-102967619D02*
X107013285Y-103015238D01*
X107013285Y-103015238D02*
X107060904Y-103062857D01*
X107060904Y-103062857D02*
X107108523Y-103158095D01*
X107108523Y-103158095D02*
X107108523Y-103253333D01*
X107108523Y-103253333D02*
X107060904Y-103396190D01*
X107060904Y-103396190D02*
X106489476Y-103967619D01*
X106489476Y-103967619D02*
X107108523Y-103967619D01*
X103147905Y-103192619D02*
X103147905Y-102192619D01*
X103147905Y-102192619D02*
X103386000Y-102192619D01*
X103386000Y-102192619D02*
X103528857Y-102240238D01*
X103528857Y-102240238D02*
X103624095Y-102335476D01*
X103624095Y-102335476D02*
X103671714Y-102430714D01*
X103671714Y-102430714D02*
X103719333Y-102621190D01*
X103719333Y-102621190D02*
X103719333Y-102764047D01*
X103719333Y-102764047D02*
X103671714Y-102954523D01*
X103671714Y-102954523D02*
X103624095Y-103049761D01*
X103624095Y-103049761D02*
X103528857Y-103145000D01*
X103528857Y-103145000D02*
X103386000Y-103192619D01*
X103386000Y-103192619D02*
X103147905Y-103192619D01*
X104671714Y-103192619D02*
X104100286Y-103192619D01*
X104386000Y-103192619D02*
X104386000Y-102192619D01*
X104386000Y-102192619D02*
X104290762Y-102335476D01*
X104290762Y-102335476D02*
X104195524Y-102430714D01*
X104195524Y-102430714D02*
X104100286Y-102478333D01*
X105537095Y-108809619D02*
X105537095Y-109619142D01*
X105537095Y-109619142D02*
X105584714Y-109714380D01*
X105584714Y-109714380D02*
X105632333Y-109762000D01*
X105632333Y-109762000D02*
X105727571Y-109809619D01*
X105727571Y-109809619D02*
X105918047Y-109809619D01*
X105918047Y-109809619D02*
X106013285Y-109762000D01*
X106013285Y-109762000D02*
X106060904Y-109714380D01*
X106060904Y-109714380D02*
X106108523Y-109619142D01*
X106108523Y-109619142D02*
X106108523Y-108809619D01*
X107108523Y-109809619D02*
X106537095Y-109809619D01*
X106822809Y-109809619D02*
X106822809Y-108809619D01*
X106822809Y-108809619D02*
X106727571Y-108952476D01*
X106727571Y-108952476D02*
X106632333Y-109047714D01*
X106632333Y-109047714D02*
X106537095Y-109095333D01*
D12*
X103603248Y-117629000D02*
X104125752Y-117629000D01*
X103603248Y-119099000D02*
X104125752Y-119099000D01*
X109565000Y-117404000D02*
X106705000Y-117404000D01*
X106705000Y-119324000D02*
X109565000Y-119324000D01*
X109565000Y-119324000D02*
X109565000Y-117404000D01*
X107939064Y-116559000D02*
X107484936Y-116559000D01*
X107939064Y-115089000D02*
X107484936Y-115089000D01*
X103674936Y-115089000D02*
X104129064Y-115089000D01*
X103674936Y-116559000D02*
X104129064Y-116559000D01*
X118081248Y-115089000D02*
X118603752Y-115089000D01*
X118081248Y-116559000D02*
X118603752Y-116559000D01*
X118081248Y-117629000D02*
X118603752Y-117629000D01*
X118081248Y-119099000D02*
X118603752Y-119099000D01*
X114800748Y-104167000D02*
X115323252Y-104167000D01*
X114800748Y-105637000D02*
X115323252Y-105637000D01*
X105184752Y-106653000D02*
X104662248Y-106653000D01*
X105184752Y-105183000D02*
X104662248Y-105183000D01*
X121530000Y-101270000D02*
X124190000Y-101270000D01*
X121530000Y-119110000D02*
X124190000Y-119110000D01*
X121530000Y-101270000D02*
X121530000Y-119110000D01*
X121530000Y-100000000D02*
X121530000Y-98670000D01*
X124190000Y-101270000D02*
X124190000Y-119110000D01*
X121530000Y-98670000D02*
X122860000Y-98670000D01*
X98670000Y-101270000D02*
X101330000Y-101270000D01*
X98670000Y-119110000D02*
X101330000Y-119110000D01*
X98670000Y-101270000D02*
X98670000Y-119110000D01*
X98670000Y-100000000D02*
X98670000Y-98670000D01*
X101330000Y-101270000D02*
X101330000Y-119110000D01*
X98670000Y-98670000D02*
X100000000Y-98670000D01*
X111030000Y-114936000D02*
X111030000Y-118236000D01*
X111030000Y-118236000D02*
X115030000Y-118236000D01*
X118110000Y-97476000D02*
X119440000Y-97476000D01*
X119440000Y-102676000D02*
X114240000Y-102676000D01*
X114240000Y-97476000D02*
X114240000Y-102676000D01*
X119440000Y-97476000D02*
X119440000Y-98806000D01*
X116840000Y-100076000D02*
X119440000Y-100076000D01*
X119440000Y-100076000D02*
X119440000Y-102676000D01*
X116840000Y-97476000D02*
X116840000Y-100076000D01*
X116840000Y-97476000D02*
X114240000Y-97476000D01*
X107422000Y-100584000D02*
X107422000Y-98634000D01*
X112542000Y-100584000D02*
X112542000Y-98634000D01*
X107422000Y-100584000D02*
X107422000Y-104034000D01*
X112542000Y-100584000D02*
X112542000Y-102534000D01*
X104648000Y-98770000D02*
X105298000Y-98770000D01*
X104648000Y-101890000D02*
X106323000Y-101890000D01*
X104648000Y-98770000D02*
X103998000Y-98770000D01*
X104648000Y-101890000D02*
X103998000Y-101890000D01*
X116195000Y-110171000D02*
X116195000Y-112121000D01*
X107325000Y-110171000D02*
X107325000Y-113621000D01*
X116195000Y-110171000D02*
X116195000Y-108221000D01*
X107325000Y-110171000D02*
X107325000Y-108221000D01*
%LPC*%
D13*
X102827000Y-118364000D03*
X104902000Y-118364000D03*
D14*
X108730000Y-118364000D03*
X106680000Y-118364000D03*
D15*
X108712000Y-115824000D03*
X106712000Y-115824000D03*
D16*
X102902000Y-115824000D03*
X104902000Y-115824000D03*
D13*
X117305000Y-115824000D03*
X119380000Y-115824000D03*
X117305000Y-118364000D03*
X119380000Y-118364000D03*
X114024500Y-104902000D03*
X116099500Y-104902000D03*
D17*
X105961000Y-105918000D03*
X103886000Y-105918000D03*
D18*
X122860000Y-100000000D03*
D19*
X122860000Y-102540000D03*
X122860000Y-105080000D03*
X122860000Y-107620000D03*
X122860000Y-110160000D03*
X122860000Y-112700000D03*
X122860000Y-115240000D03*
X122860000Y-117780000D03*
D18*
X100000000Y-100000000D03*
D19*
X100000000Y-102540000D03*
X100000000Y-105080000D03*
X100000000Y-107620000D03*
X100000000Y-110160000D03*
X100000000Y-112700000D03*
X100000000Y-115240000D03*
X100000000Y-117780000D03*
D20*
X111930000Y-117436000D03*
X114130000Y-117436000D03*
X114130000Y-115736000D03*
X111930000Y-115736000D03*
D19*
X115570000Y-101346000D03*
X115570000Y-98806000D03*
X118110000Y-101346000D03*
D18*
X118110000Y-98806000D03*
D21*
X108077000Y-103059000D03*
X109347000Y-103059000D03*
X110617000Y-103059000D03*
X111887000Y-103059000D03*
X111887000Y-98109000D03*
X110617000Y-98109000D03*
X109347000Y-98109000D03*
X108077000Y-98109000D03*
D22*
X103710500Y-100330000D03*
X105585500Y-99380000D03*
X105585500Y-101280000D03*
D21*
X107950000Y-107696000D03*
X109220000Y-107696000D03*
X110490000Y-107696000D03*
X111760000Y-107696000D03*
X113030000Y-107696000D03*
X114300000Y-107696000D03*
X115570000Y-107696000D03*
X115570000Y-112646000D03*
X114300000Y-112646000D03*
X113030000Y-112646000D03*
X111760000Y-112646000D03*
X110490000Y-112646000D03*
X109220000Y-112646000D03*
X107950000Y-112646000D03*
M02*
