G04 #@! TF.GenerationSoftware,KiCad,Pcbnew,7.0.1*
G04 #@! TF.CreationDate,2023-10-25T20:54:25+02:00*
G04 #@! TF.ProjectId,canfd_breakout,63616e66-645f-4627-9265-616b6f75742e,rev?*
G04 #@! TF.SameCoordinates,Original*
G04 #@! TF.FileFunction,Copper,L1,Top*
G04 #@! TF.FilePolarity,Positive*
%FSLAX46Y46*%
G04 Gerber Fmt 4.6, Leading zero omitted, Abs format (unit mm)*
G04 Created by KiCad (PCBNEW 7.0.1) date 2023-10-25 20:54:25*
%MOMM*%
%LPD*%
G01*
G04 APERTURE LIST*
G04 Aperture macros list*
%AMRoundRect*
0 Rectangle with rounded corners*
0 $1 Rounding radius*
0 $2 $3 $4 $5 $6 $7 $8 $9 X,Y pos of 4 corners*
0 Add a 4 corners polygon primitive as box body*
4,1,4,$2,$3,$4,$5,$6,$7,$8,$9,$2,$3,0*
0 Add four circle primitives for the rounded corners*
1,1,$1+$1,$2,$3*
1,1,$1+$1,$4,$5*
1,1,$1+$1,$6,$7*
1,1,$1+$1,$8,$9*
0 Add four rect primitives between the rounded corners*
20,1,$1+$1,$2,$3,$4,$5,0*
20,1,$1+$1,$4,$5,$6,$7,0*
20,1,$1+$1,$6,$7,$8,$9,0*
20,1,$1+$1,$8,$9,$2,$3,0*%
G04 Aperture macros list end*
G04 #@! TA.AperFunction,SMDPad,CuDef*
%ADD10RoundRect,0.250000X-0.337500X-0.475000X0.337500X-0.475000X0.337500X0.475000X-0.337500X0.475000X0*%
G04 #@! TD*
G04 #@! TA.AperFunction,SMDPad,CuDef*
%ADD11RoundRect,0.250000X0.325000X0.450000X-0.325000X0.450000X-0.325000X-0.450000X0.325000X-0.450000X0*%
G04 #@! TD*
G04 #@! TA.AperFunction,SMDPad,CuDef*
%ADD12RoundRect,0.250000X0.350000X0.450000X-0.350000X0.450000X-0.350000X-0.450000X0.350000X-0.450000X0*%
G04 #@! TD*
G04 #@! TA.AperFunction,SMDPad,CuDef*
%ADD13RoundRect,0.250000X-0.350000X-0.450000X0.350000X-0.450000X0.350000X0.450000X-0.350000X0.450000X0*%
G04 #@! TD*
G04 #@! TA.AperFunction,SMDPad,CuDef*
%ADD14RoundRect,0.250000X0.337500X0.475000X-0.337500X0.475000X-0.337500X-0.475000X0.337500X-0.475000X0*%
G04 #@! TD*
G04 #@! TA.AperFunction,ComponentPad*
%ADD15R,1.700000X1.700000*%
G04 #@! TD*
G04 #@! TA.AperFunction,ComponentPad*
%ADD16O,1.700000X1.700000*%
G04 #@! TD*
G04 #@! TA.AperFunction,SMDPad,CuDef*
%ADD17R,1.400000X1.200000*%
G04 #@! TD*
G04 #@! TA.AperFunction,SMDPad,CuDef*
%ADD18RoundRect,0.150000X0.150000X-0.825000X0.150000X0.825000X-0.150000X0.825000X-0.150000X-0.825000X0*%
G04 #@! TD*
G04 #@! TA.AperFunction,SMDPad,CuDef*
%ADD19RoundRect,0.150000X0.587500X0.150000X-0.587500X0.150000X-0.587500X-0.150000X0.587500X-0.150000X0*%
G04 #@! TD*
G04 #@! TA.AperFunction,ViaPad*
%ADD20C,0.800000*%
G04 #@! TD*
G04 #@! TA.AperFunction,Conductor*
%ADD21C,0.250000*%
G04 #@! TD*
G04 #@! TA.AperFunction,Conductor*
%ADD22C,0.400000*%
G04 #@! TD*
G04 #@! TA.AperFunction,Conductor*
%ADD23C,0.500000*%
G04 #@! TD*
G04 #@! TA.AperFunction,Conductor*
%ADD24C,1.000000*%
G04 #@! TD*
G04 APERTURE END LIST*
D10*
X102827000Y-118364000D03*
X104902000Y-118364000D03*
D11*
X108730000Y-118364000D03*
X106680000Y-118364000D03*
D12*
X108712000Y-115824000D03*
X106712000Y-115824000D03*
D13*
X102902000Y-115824000D03*
X104902000Y-115824000D03*
D10*
X117305000Y-115824000D03*
X119380000Y-115824000D03*
X117305000Y-118364000D03*
X119380000Y-118364000D03*
X114024500Y-104902000D03*
X116099500Y-104902000D03*
D14*
X105961000Y-105918000D03*
X103886000Y-105918000D03*
D15*
X122860000Y-100000000D03*
D16*
X122860000Y-102540000D03*
X122860000Y-105080000D03*
X122860000Y-107620000D03*
X122860000Y-110160000D03*
X122860000Y-112700000D03*
X122860000Y-115240000D03*
X122860000Y-117780000D03*
D15*
X100000000Y-100000000D03*
D16*
X100000000Y-102540000D03*
X100000000Y-105080000D03*
X100000000Y-107620000D03*
X100000000Y-110160000D03*
X100000000Y-112700000D03*
X100000000Y-115240000D03*
X100000000Y-117780000D03*
D17*
X111930000Y-117436000D03*
X114130000Y-117436000D03*
X114130000Y-115736000D03*
X111930000Y-115736000D03*
D16*
X115570000Y-101346000D03*
X115570000Y-98806000D03*
X118110000Y-101346000D03*
D15*
X118110000Y-98806000D03*
D18*
X108077000Y-103059000D03*
X109347000Y-103059000D03*
X110617000Y-103059000D03*
X111887000Y-103059000D03*
X111887000Y-98109000D03*
X110617000Y-98109000D03*
X109347000Y-98109000D03*
X108077000Y-98109000D03*
D19*
X103710500Y-100330000D03*
X105585500Y-99380000D03*
X105585500Y-101280000D03*
D18*
X107950000Y-107696000D03*
X109220000Y-107696000D03*
X110490000Y-107696000D03*
X111760000Y-107696000D03*
X113030000Y-107696000D03*
X114300000Y-107696000D03*
X115570000Y-107696000D03*
X115570000Y-112646000D03*
X114300000Y-112646000D03*
X113030000Y-112646000D03*
X111760000Y-112646000D03*
X110490000Y-112646000D03*
X109220000Y-112646000D03*
X107950000Y-112646000D03*
D20*
X119634000Y-108712000D03*
X106172000Y-107696000D03*
X111120701Y-100494500D03*
X109855000Y-99732500D03*
X109855000Y-115824000D03*
X109220000Y-104902000D03*
X116877500Y-104902000D03*
X119888000Y-109982000D03*
X103378000Y-111252000D03*
X120650000Y-118872000D03*
X120142000Y-114300000D03*
X115824000Y-114300000D03*
X109982000Y-118364000D03*
X102362000Y-105918000D03*
X102362000Y-100330000D03*
X106172000Y-114046000D03*
X112268000Y-105918000D03*
X109220000Y-114300000D03*
X112014000Y-104902000D03*
X107696000Y-114300000D03*
X107696000Y-104902000D03*
D21*
X115646000Y-107620000D02*
X122860000Y-107620000D01*
X115570000Y-107696000D02*
X115646000Y-107620000D01*
X119126000Y-109220000D02*
X119634000Y-108712000D01*
X113032792Y-109220000D02*
X119126000Y-109220000D01*
X110999396Y-111253396D02*
X113032792Y-109220000D01*
X110490000Y-111762792D02*
X110999396Y-111253396D01*
X110490000Y-112646000D02*
X110490000Y-111762792D01*
X103632000Y-110998000D02*
X103378000Y-111252000D01*
X113030000Y-108586396D02*
X110618396Y-110998000D01*
X110618396Y-110998000D02*
X103632000Y-110998000D01*
X113030000Y-107696000D02*
X113030000Y-108586396D01*
X101891000Y-98109000D02*
X100000000Y-100000000D01*
X108077000Y-98109000D02*
X101891000Y-98109000D01*
D22*
X105918000Y-105875000D02*
X105961000Y-105918000D01*
X105918000Y-104648000D02*
X105918000Y-105875000D01*
X106934000Y-103632000D02*
X105918000Y-104648000D01*
X106934000Y-101981000D02*
X106934000Y-103632000D01*
X107569000Y-101346000D02*
X106934000Y-101981000D01*
X111760000Y-101346000D02*
X107569000Y-101346000D01*
X112141000Y-99822000D02*
X112141000Y-100965000D01*
X112141000Y-100965000D02*
X111760000Y-101346000D01*
X111887000Y-99568000D02*
X112141000Y-99822000D01*
X111887000Y-98109000D02*
X111887000Y-99568000D01*
D23*
X106807000Y-107061000D02*
X106172000Y-107696000D01*
X106807000Y-105918000D02*
X106807000Y-107061000D01*
X107696000Y-105918000D02*
X106807000Y-105918000D01*
X107950000Y-106172000D02*
X107696000Y-105918000D01*
X107950000Y-107696000D02*
X107950000Y-106172000D01*
X105961000Y-105918000D02*
X106807000Y-105918000D01*
D21*
X111120701Y-100452701D02*
X111120701Y-100494500D01*
X110617000Y-99949000D02*
X111120701Y-100452701D01*
X110617000Y-99949000D02*
X110617000Y-98109000D01*
X110617000Y-100076000D02*
X110617000Y-99949000D01*
X109765500Y-99732500D02*
X109855000Y-99732500D01*
X109347000Y-99314000D02*
X109765500Y-99732500D01*
X110236000Y-100457000D02*
X110617000Y-100076000D01*
X106238000Y-101280000D02*
X107061000Y-100457000D01*
X107061000Y-100457000D02*
X110236000Y-100457000D01*
X105585500Y-101280000D02*
X106238000Y-101280000D01*
X109347000Y-99314000D02*
X109347000Y-98109000D01*
X106746000Y-99380000D02*
X107061000Y-99695000D01*
X108966000Y-99695000D02*
X109347000Y-99314000D01*
X105585500Y-99380000D02*
X106746000Y-99380000D01*
X107061000Y-99695000D02*
X108966000Y-99695000D01*
X110744000Y-114554000D02*
X110744000Y-117094000D01*
D24*
X109855000Y-115824000D02*
X108712000Y-115824000D01*
D21*
X111086000Y-117436000D02*
X111930000Y-117436000D01*
X110744000Y-117094000D02*
X111086000Y-117436000D01*
X110998000Y-114300000D02*
X110744000Y-114554000D01*
X113030000Y-113538000D02*
X112268000Y-114300000D01*
X112268000Y-114300000D02*
X110998000Y-114300000D01*
X113030000Y-112646000D02*
X113030000Y-113538000D01*
X109347000Y-104775000D02*
X109220000Y-104902000D01*
X109347000Y-103059000D02*
X109347000Y-104775000D01*
X116099500Y-104902000D02*
X116877500Y-104902000D01*
X114047249Y-109982000D02*
X119888000Y-109982000D01*
X111760000Y-112269249D02*
X114047249Y-109982000D01*
X111760000Y-112646000D02*
X111760000Y-112269249D01*
X120142000Y-118364000D02*
X120650000Y-118872000D01*
X119380000Y-118364000D02*
X120142000Y-118364000D01*
X119380000Y-115062000D02*
X120142000Y-114300000D01*
X119380000Y-115824000D02*
X119380000Y-115062000D01*
X115570000Y-114046000D02*
X115824000Y-114300000D01*
X115570000Y-112646000D02*
X115570000Y-114046000D01*
X108730000Y-118364000D02*
X109982000Y-118364000D01*
X103886000Y-105918000D02*
X102362000Y-105918000D01*
X103710500Y-100330000D02*
X102362000Y-100330000D01*
D23*
X104902000Y-115316000D02*
X106172000Y-114046000D01*
D21*
X104902000Y-115824000D02*
X104902000Y-115316000D01*
D23*
X113284000Y-104902000D02*
X112268000Y-105918000D01*
X114024500Y-104902000D02*
X113284000Y-104902000D01*
X111827918Y-105918000D02*
X112268000Y-105918000D01*
X110617000Y-104707082D02*
X111827918Y-105918000D01*
X110617000Y-103059000D02*
X110617000Y-104707082D01*
D21*
X109220000Y-114300000D02*
X109220000Y-112646000D01*
X111887000Y-104775000D02*
X112014000Y-104902000D01*
X111887000Y-103059000D02*
X111887000Y-104775000D01*
X107696000Y-112900000D02*
X107950000Y-112646000D01*
X107696000Y-114300000D02*
X107696000Y-112900000D01*
X108077000Y-103059000D02*
X108077000Y-104521000D01*
X108077000Y-104521000D02*
X107696000Y-104902000D01*
X114300000Y-115566000D02*
X114130000Y-115736000D01*
X114300000Y-112646000D02*
X114300000Y-115566000D01*
X117217000Y-115736000D02*
X114130000Y-115736000D01*
X117305000Y-115824000D02*
X117217000Y-115736000D01*
X111930000Y-118280000D02*
X111930000Y-117436000D01*
X112268000Y-118618000D02*
X111930000Y-118280000D01*
X117051000Y-118618000D02*
X112268000Y-118618000D01*
X117305000Y-118364000D02*
X117051000Y-118618000D01*
X104902000Y-118364000D02*
X106680000Y-118364000D01*
X102827000Y-117899000D02*
X104902000Y-115824000D01*
X102827000Y-118364000D02*
X102827000Y-117899000D01*
D24*
X106712000Y-115824000D02*
X104902000Y-115824000D01*
D23*
X102318000Y-115240000D02*
X102902000Y-115824000D01*
X100000000Y-115240000D02*
X102318000Y-115240000D01*
D21*
X121768000Y-106172000D02*
X122860000Y-105080000D01*
X114300000Y-106426000D02*
X114554000Y-106172000D01*
X114300000Y-107696000D02*
X114300000Y-106426000D01*
X114554000Y-106172000D02*
X121768000Y-106172000D01*
X110548000Y-110432000D02*
X102268000Y-110432000D01*
X102268000Y-110432000D02*
X100000000Y-112700000D01*
X111760000Y-109220000D02*
X110548000Y-110432000D01*
X111760000Y-107696000D02*
X111760000Y-109220000D01*
X109728000Y-109982000D02*
X100178000Y-109982000D01*
X100178000Y-109982000D02*
X100000000Y-110160000D01*
X110490000Y-109220000D02*
X109728000Y-109982000D01*
X110490000Y-107696000D02*
X110490000Y-109220000D01*
X104394000Y-109474000D02*
X100000000Y-105080000D01*
X108712000Y-109474000D02*
X104394000Y-109474000D01*
X109220000Y-108966000D02*
X108712000Y-109474000D01*
X109220000Y-107696000D02*
X109220000Y-108966000D01*
M02*
